<svg width="338" height="330" viewBox="0 0 338 330" fill="none" xmlns="http://www.w3.org/2000/svg">
<g clip-path="url(#clip0_594_5953)">
<mask id="path-1-inside-1_594_5953" fill="white">
<path d="M322 0C330.837 2.83473e-06 338 7.16345 338 16V314C338 322.837 330.837 330 322 330H16C7.16345 330 0 322.837 0 314V16C2.38391e-06 7.16345 7.16345 1.12745e-07 16 0H322ZM26 52.3477C20.4604 52.3477 15.9698 56.8383 15.9697 62.3779C15.9697 67.9176 20.4603 72.4082 26 72.4082C31.5397 72.4082 36.0303 67.9176 36.0303 62.3779C36.0302 56.8383 31.5396 52.3477 26 52.3477ZM26 16.1279C20.4605 16.1279 15.9699 20.6187 15.9697 26.1582C15.9697 31.6979 20.4603 36.1895 26 36.1895C31.5397 36.1895 36.0303 31.6979 36.0303 26.1582C36.0301 20.6187 31.5395 16.1279 26 16.1279Z"/>
</mask>
<path d="M322 0C330.837 2.83473e-06 338 7.16345 338 16V314C338 322.837 330.837 330 322 330H16C7.16345 330 0 322.837 0 314V16C2.38391e-06 7.16345 7.16345 1.12745e-07 16 0H322ZM26 52.3477C20.4604 52.3477 15.9698 56.8383 15.9697 62.3779C15.9697 67.9176 20.4603 72.4082 26 72.4082C31.5397 72.4082 36.0303 67.9176 36.0303 62.3779C36.0302 56.8383 31.5396 52.3477 26 52.3477ZM26 16.1279C20.4605 16.1279 15.9699 20.6187 15.9697 26.1582C15.9697 31.6979 20.4603 36.1895 26 36.1895C31.5397 36.1895 36.0303 31.6979 36.0303 26.1582C36.0301 20.6187 31.5395 16.1279 26 16.1279Z" fill="#FAFAFA"/>
<path d="M322 0V-1V-1V0ZM338 314H339V314H338ZM322 330V331V330ZM16 330V331V331V330ZM0 16H-1V16H0ZM16 0V-1V0ZM15.9697 62.3779L14.9697 62.3779V62.3779H15.9697ZM36.0303 62.3779H37.0303V62.3779L36.0303 62.3779ZM15.9697 26.1582L14.9697 26.1582V26.1582H15.9697ZM36.0303 26.1582H37.0303V26.1582L36.0303 26.1582ZM322 0V1C330.284 1 337 7.71573 337 16H338H339C339 6.61116 331.389 -0.999997 322 -1V0ZM338 16H337V314H338H339V16H338ZM338 314H337C337 322.284 330.284 329 322 329V330V331C331.389 331 339 323.389 339 314H338ZM322 330V329H16V330V331H322V330ZM16 330V329C7.71573 329 1 322.284 1 314H0H-1C-1 323.389 6.61116 331 16 331V330ZM0 314H1V16H0H-1V314H0ZM0 16H1C1 7.71573 7.71573 1 16 1V0V-1C6.61116 -1 -0.999997 6.61116 -1 16H0ZM16 0V1H322V0V-1H16V0ZM26 52.3477V51.3477C19.9081 51.3477 14.9698 56.286 14.9697 62.3779L15.9697 62.3779L16.9697 62.3779C16.9698 57.3906 21.0127 53.3477 26 53.3477V52.3477ZM15.9697 62.3779H14.9697C14.9697 68.4699 19.9081 73.4082 26 73.4082V72.4082V71.4082C21.0126 71.4082 16.9697 67.3653 16.9697 62.3779H15.9697ZM26 72.4082V73.4082C32.0919 73.4082 37.0303 68.4699 37.0303 62.3779H36.0303H35.0303C35.0303 67.3653 30.9874 71.4082 26 71.4082V72.4082ZM36.0303 62.3779L37.0303 62.3779C37.0302 56.286 32.0919 51.3477 26 51.3477V52.3477V53.3477C30.9873 53.3477 35.0302 57.3906 35.0303 62.3779L36.0303 62.3779ZM26 16.1279V15.1279C19.9081 15.1279 14.9699 20.0664 14.9697 26.1582L15.9697 26.1582L16.9697 26.1582C16.9699 21.171 21.0128 17.1279 26 17.1279V16.1279ZM15.9697 26.1582H14.9697C14.9697 32.25 19.9079 37.1895 26 37.1895V36.1895V35.1895C21.0128 35.1895 16.9697 31.1457 16.9697 26.1582H15.9697ZM26 36.1895V37.1895C32.0921 37.1895 37.0303 32.25 37.0303 26.1582H36.0303H35.0303C35.0303 31.1457 30.9872 35.1895 26 35.1895V36.1895ZM36.0303 26.1582L37.0303 26.1582C37.0301 20.0664 32.0919 15.1279 26 15.1279V16.1279V17.1279C30.9872 17.1279 35.0301 21.171 35.0303 26.1582L36.0303 26.1582Z" fill="#ECECEC" mask="url(#path-1-inside-1_594_5953)"/>
</g>
<defs>
<clipPath id="clip0_594_5953">
<rect width="338" height="330" fill="white"/>
</clipPath>
</defs>
</svg>
