<svg width="424" height="580" viewBox="0 0 424 580" fill="none" xmlns="http://www.w3.org/2000/svg">
<path d="M28.0137 0C28.3264 7.17851 34.2444 12.9023 41.5 12.9023C48.7556 12.9023 54.6736 7.17851 54.9863 0H66.0137C66.3264 7.17851 72.2444 12.9023 79.5 12.9023C86.7556 12.9023 92.6736 7.17851 92.9863 0H104.014C104.326 7.17851 110.244 12.9023 117.5 12.9023C124.756 12.9023 130.674 7.17851 130.986 0H142.014C142.326 7.17851 148.244 12.9023 155.5 12.9023C162.756 12.9023 168.674 7.17851 168.986 0H180.014C180.326 7.17851 186.244 12.9023 193.5 12.9023C200.756 12.9023 206.674 7.17851 206.986 0H218.014C218.326 7.17851 224.244 12.9023 231.5 12.9023C238.756 12.9023 244.674 7.17851 244.986 0H256.014C256.326 7.17851 262.244 12.9023 269.5 12.9023C276.756 12.9023 282.674 7.17851 282.986 0H294.014C294.326 7.17851 300.244 12.9023 307.5 12.9023C314.756 12.9023 320.674 7.17851 320.986 0H332.014C332.326 7.17851 338.244 12.9023 345.5 12.9023C352.756 12.9023 358.674 7.17851 358.986 0H370.083C370.029 0.492522 370 0.992963 370 1.5C370 8.95584 376.044 15 383.5 15C390.956 15 397 8.95584 397 1.5C397 0.992963 396.971 0.492522 396.917 0H404C405.383 0 406.733 0.140091 408.036 0.407227C408.55 7.39381 414.382 12.9023 421.5 12.9023C421.898 12.9023 422.292 12.8834 422.682 12.8496C423.532 15.0702 424 17.4803 424 20V560C424 571.046 415.046 580 404 580H20C8.95431 580 0 571.046 0 560V20C1.34582e-06 17.4364 0.483439 14.9859 1.3623 12.7334C2.0586 12.8442 2.77253 12.9023 3.5 12.9023C10.6787 12.9023 16.5472 7.29905 16.9736 0.227539C17.9606 0.0777297 18.9712 1.50014e-08 20 0H28.0137Z" fill="white"/>
</svg>
