<svg width="20" height="20" viewBox="0 0 20 20" fill="none" xmlns="http://www.w3.org/2000/svg">
<g clip-path="url(#clip0_596_6586)">
<g clip-path="url(#clip1_596_6586)">
<rect width="20" height="20" fill="#0778D5"/>
</g>
<path d="M9.02105 14.4649C9.39066 14.4649 9.67036 14.3248 9.86015 14.0344L14.4552 6.99655C14.5951 6.7763 14.655 6.58609 14.655 6.39588C14.655 5.89532 14.2754 5.53491 13.756 5.53491C13.4063 5.53491 13.1966 5.66506 12.9768 5.99543L8.99109 12.3125L6.95327 9.75964C6.75349 9.51937 6.54371 9.40925 6.24404 9.40925C5.72459 9.40925 5.345 9.77967 5.345 10.2902C5.345 10.5105 5.41493 10.7107 5.60472 10.931L8.18195 14.0745C8.40172 14.3448 8.66144 14.4649 9.01106 14.4649H9.02105Z" fill="white"/>
</g>
<defs>
<clipPath id="clip0_596_6586">
<path d="M0 6.4C0 4.15979 0 3.03968 0.435974 2.18404C0.819467 1.43139 1.43139 0.819467 2.18404 0.435974C3.03968 0 4.15979 0 6.4 0H13.6C15.8402 0 16.9603 0 17.816 0.435974C18.5686 0.819467 19.1805 1.43139 19.564 2.18404C20 3.03968 20 4.15979 20 6.4V13.6C20 15.8402 20 16.9603 19.564 17.816C19.1805 18.5686 18.5686 19.1805 17.816 19.564C16.9603 20 15.8402 20 13.6 20H6.4C4.15979 20 3.03968 20 2.18404 19.564C1.43139 19.1805 0.819467 18.5686 0.435974 17.816C0 16.9603 0 15.8402 0 13.6V6.4Z" fill="white"/>
</clipPath>
<clipPath id="clip1_596_6586">
<rect width="20" height="20" fill="white"/>
</clipPath>
</defs>
</svg>
