<svg width="52" height="52" viewBox="0 0 52 52" fill="none" xmlns="http://www.w3.org/2000/svg">
<rect width="52" height="52" fill="white"/>
<circle cx="24.25" cy="5.40234" r="0.5" fill="#C0AF17"/>
<circle cx="25.4219" cy="5.40234" r="0.5" fill="#C0AF17"/>
<circle cx="26.5938" cy="5.40234" r="0.5" fill="#C0AF17"/>
<circle cx="27.7656" cy="5.40234" r="0.5" fill="#C0AF17"/>
<circle cx="28.9375" cy="5.40234" r="0.5" fill="#C0AF17"/>
<circle cx="30.1094" cy="5.40234" r="0.5" fill="#C0AF17"/>
<circle cx="31.2812" cy="5.40234" r="0.5" fill="#C0AF17"/>
<circle cx="20.7344" cy="6.57422" r="0.5" fill="#C0AF17"/>
<circle cx="21.9062" cy="6.57422" r="0.5" fill="#C0AF17"/>
<circle cx="23.0781" cy="6.57422" r="0.5" fill="#C0AF17"/>
<circle cx="24.25" cy="6.57422" r="0.5" fill="#C0AF17"/>
<circle cx="25.4219" cy="6.57422" r="0.5" fill="#C0AF17"/>
<circle cx="26.5938" cy="6.57422" r="0.5" fill="#C0AF17"/>
<circle cx="27.7656" cy="6.57422" r="0.5" fill="#C0AF17"/>
<circle cx="28.9375" cy="6.57422" r="0.5" fill="#C0AF17"/>
<circle cx="30.1094" cy="6.57422" r="0.5" fill="#C0AF17"/>
<circle cx="31.2812" cy="6.57422" r="0.5" fill="#C0AF17"/>
<circle cx="32.4531" cy="6.57422" r="0.5" fill="#C0AF17"/>
<circle cx="33.625" cy="6.57422" r="0.5" fill="#C0AF17"/>
<circle cx="34.7969" cy="6.57422" r="0.5" fill="#C0AF17"/>
<circle cx="18.3906" cy="7.74609" r="0.5" fill="#C0AF17"/>
<circle cx="19.5625" cy="7.74609" r="0.5" fill="#C0AF17"/>
<circle cx="20.7344" cy="7.74609" r="0.5" fill="#C0AF17"/>
<circle cx="27.7656" cy="7.74609" r="0.5" fill="#C0AF17"/>
<circle cx="28.9375" cy="7.74609" r="0.5" fill="#C0AF17"/>
<circle cx="30.1094" cy="7.74609" r="0.5" fill="#C0AF17"/>
<circle cx="32.4531" cy="7.74609" r="0.5" fill="#C0AF17"/>
<circle cx="33.625" cy="7.74609" r="0.5" fill="#C0AF17"/>
<circle cx="35.9688" cy="7.74609" r="0.5" fill="#C0AF17"/>
<circle cx="37.1406" cy="7.74609" r="0.5" fill="#C0AF17"/>
<circle cx="17.2188" cy="8.91797" r="0.5" fill="#C0AF17"/>
<circle cx="31.2812" cy="8.91797" r="0.5" fill="#C0AF17"/>
<circle cx="32.4531" cy="8.91797" r="0.5" fill="#C0AF17"/>
<circle cx="34.7969" cy="8.91797" r="0.5" fill="#C0AF17"/>
<circle cx="35.9688" cy="8.91797" r="0.5" fill="#C0AF17"/>
<circle cx="38.3125" cy="8.91797" r="0.5" fill="#C0AF17"/>
<circle cx="39.4844" cy="8.91797" r="0.5" fill="#C0AF17"/>
<circle cx="17.2188" cy="10.0898" r="0.5" fill="#C0AF17"/>
<circle cx="18.3906" cy="10.0898" r="0.5" fill="#C0AF17"/>
<circle cx="19.5625" cy="10.0898" r="0.5" fill="#C0AF17"/>
<circle cx="20.7344" cy="10.0898" r="0.5" fill="#C0AF17"/>
<circle cx="21.9062" cy="10.0898" r="0.5" fill="#C0AF17"/>
<circle cx="24.25" cy="10.0898" r="0.5" fill="#C0AF17"/>
<circle cx="25.4219" cy="10.0898" r="0.5" fill="#C0AF17"/>
<circle cx="26.5938" cy="10.0898" r="0.5" fill="#C0AF17"/>
<circle cx="27.7656" cy="10.0898" r="0.5" fill="#C0AF17"/>
<circle cx="33.625" cy="10.0898" r="0.5" fill="#C0AF17"/>
<circle cx="37.1406" cy="10.0898" r="0.5" fill="#C0AF17"/>
<circle cx="39.4844" cy="10.0898" r="0.5" fill="#C0AF17"/>
<circle cx="40.6562" cy="10.0898" r="0.5" fill="#C0AF17"/>
<circle cx="14.875" cy="11.2617" r="0.5" fill="#C0AF17"/>
<circle cx="16.0469" cy="11.2617" r="0.5" fill="#C0AF17"/>
<circle cx="21.9062" cy="11.2617" r="0.5" fill="#C0AF17"/>
<circle cx="23.0781" cy="11.2617" r="0.5" fill="#C0AF17"/>
<circle cx="24.25" cy="11.2617" r="0.5" fill="#C0AF17"/>
<circle cx="25.4219" cy="11.2617" r="0.5" fill="#C0AF17"/>
<circle cx="26.5938" cy="11.2617" r="0.5" fill="#C0AF17"/>
<circle cx="30.1094" cy="11.2617" r="0.5" fill="#C0AF17"/>
<circle cx="34.7969" cy="11.2617" r="0.5" fill="#C0AF17"/>
<circle cx="38.3125" cy="11.2617" r="0.5" fill="#C0AF17"/>
<circle cx="40.6562" cy="11.2617" r="0.5" fill="#C0AF17"/>
<circle cx="41.8281" cy="11.2617" r="0.5" fill="#C0AF17"/>
<circle cx="12.5312" cy="12.4336" r="0.5" fill="#C0AF17"/>
<circle cx="13.7031" cy="12.4336" r="0.5" fill="#C0AF17"/>
<circle cx="18.3906" cy="12.4336" r="0.5" fill="#C0AF17"/>
<circle cx="19.5625" cy="12.4336" r="0.5" fill="#C0AF17"/>
<circle cx="30.1094" cy="12.4336" r="0.5" fill="#C0AF17"/>
<circle cx="32.4531" cy="12.4336" r="0.5" fill="#C0AF17"/>
<circle cx="35.9688" cy="12.4336" r="0.5" fill="#C0AF17"/>
<circle cx="39.4844" cy="12.4336" r="0.5" fill="#C0AF17"/>
<circle cx="41.8281" cy="12.4336" r="0.5" fill="#C0AF17"/>
<circle cx="11.3594" cy="13.6055" r="0.5" fill="#C0AF17"/>
<circle cx="16.0469" cy="13.6055" r="0.5" fill="#C0AF17"/>
<circle cx="21.9062" cy="13.6055" r="0.5" fill="#C0AF17"/>
<circle cx="23.0781" cy="13.6055" r="0.5" fill="#C0AF17"/>
<circle cx="24.25" cy="13.6055" r="0.5" fill="#C0AF17"/>
<circle cx="27.7656" cy="13.6055" r="0.5" fill="#C0AF17"/>
<circle cx="28.9375" cy="13.6055" r="0.5" fill="#C0AF17"/>
<circle cx="30.1094" cy="13.6055" r="0.5" fill="#C0AF17"/>
<circle cx="33.625" cy="13.6055" r="0.5" fill="#C0AF17"/>
<circle cx="37.1406" cy="13.6055" r="0.5" fill="#C0AF17"/>
<circle cx="39.4844" cy="13.6055" r="0.5" fill="#C0AF17"/>
<circle cx="40.6562" cy="13.6055" r="0.5" fill="#C0AF17"/>
<circle cx="43" cy="13.6055" r="0.5" fill="#C0AF17"/>
<circle cx="10.1875" cy="14.7773" r="0.5" fill="#C0AF17"/>
<circle cx="13.7031" cy="14.7773" r="0.5" fill="#C0AF17"/>
<circle cx="14.875" cy="14.7773" r="0.5" fill="#C0AF17"/>
<circle cx="18.3906" cy="14.7773" r="0.5" fill="#C0AF17"/>
<circle cx="19.5625" cy="14.7773" r="0.5" fill="#C0AF17"/>
<circle cx="32.4531" cy="14.7773" r="0.5" fill="#C0AF17"/>
<circle cx="34.7969" cy="14.7773" r="0.5" fill="#C0AF17"/>
<circle cx="38.3125" cy="14.7773" r="0.5" fill="#C0AF17"/>
<circle cx="40.6562" cy="14.7773" r="0.5" fill="#C0AF17"/>
<circle cx="44.1719" cy="14.7773" r="0.5" fill="#C0AF17"/>
<circle cx="9.01562" cy="15.9492" r="0.5" fill="#C0AF17"/>
<circle cx="12.5312" cy="15.9492" r="0.5" fill="#C0AF17"/>
<circle cx="16.0469" cy="15.9492" r="0.5" fill="#C0AF17"/>
<circle cx="17.2188" cy="15.9492" r="0.5" fill="#C0AF17"/>
<circle cx="35.9688" cy="15.9492" r="0.5" fill="#C0AF17"/>
<circle cx="38.3125" cy="15.9492" r="0.5" fill="#C0AF17"/>
<circle cx="41.8281" cy="15.9492" r="0.5" fill="#C0AF17"/>
<circle cx="44.1719" cy="15.9492" r="0.5" fill="#C0AF17"/>
<circle cx="7.84375" cy="17.1211" r="0.5" fill="#C0AF17"/>
<circle cx="11.3594" cy="17.1211" r="0.5" fill="#C0AF17"/>
<circle cx="14.875" cy="17.1211" r="0.5" fill="#C0AF17"/>
<circle cx="37.1406" cy="17.1211" r="0.5" fill="#C0AF17"/>
<circle cx="39.4844" cy="17.1211" r="0.5" fill="#C0AF17"/>
<circle cx="41.8281" cy="17.1211" r="0.5" fill="#C0AF17"/>
<circle cx="44.1719" cy="17.1211" r="0.5" fill="#C0AF17"/>
<circle cx="45.3438" cy="17.1211" r="0.5" fill="#C0AF17"/>
<circle cx="6.67188" cy="18.293" r="0.5" fill="#C0AF17"/>
<circle cx="7.84375" cy="18.293" r="0.5" fill="#C0AF17"/>
<circle cx="10.1875" cy="18.293" r="0.5" fill="#C0AF17"/>
<circle cx="13.7031" cy="18.293" r="0.5" fill="#C0AF17"/>
<circle cx="39.4844" cy="18.293" r="0.5" fill="#C0AF17"/>
<circle cx="43" cy="18.293" r="0.5" fill="#C0AF17"/>
<circle cx="45.3438" cy="18.293" r="0.5" fill="#C0AF17"/>
<circle cx="6.67188" cy="19.4648" r="0.5" fill="#C0AF17"/>
<circle cx="9.01562" cy="19.4648" r="0.5" fill="#C0AF17"/>
<circle cx="10.1875" cy="19.4648" r="0.5" fill="#C0AF17"/>
<circle cx="12.5312" cy="19.4648" r="0.5" fill="#C0AF17"/>
<circle cx="40.6562" cy="19.4648" r="0.5" fill="#C0AF17"/>
<circle cx="43" cy="19.4648" r="0.5" fill="#C0AF17"/>
<circle cx="45.3438" cy="19.4648" r="0.5" fill="#C0AF17"/>
<circle cx="6.67188" cy="20.6367" r="0.5" fill="#C0AF17"/>
<circle cx="9.01562" cy="20.6367" r="0.5" fill="#C0AF17"/>
<circle cx="11.3594" cy="20.6367" r="0.5" fill="#C0AF17"/>
<circle cx="40.6562" cy="20.6367" r="0.5" fill="#C0AF17"/>
<circle cx="43" cy="20.6367" r="0.5" fill="#C0AF17"/>
<circle cx="45.3438" cy="20.6367" r="0.5" fill="#C0AF17"/>
<circle cx="5.5" cy="21.8086" r="0.5" fill="#C0AF17"/>
<circle cx="7.84375" cy="21.8086" r="0.5" fill="#C0AF17"/>
<circle cx="11.3594" cy="21.8086" r="0.5" fill="#C0AF17"/>
<circle cx="12.5312" cy="21.8086" r="0.5" fill="#C0AF17"/>
<circle cx="40.6562" cy="21.8086" r="0.5" fill="#C0AF17"/>
<circle cx="43" cy="21.8086" r="0.5" fill="#C0AF17"/>
<circle cx="45.3438" cy="21.8086" r="0.5" fill="#C0AF17"/>
<circle cx="5.5" cy="22.9805" r="0.5" fill="#C0AF17"/>
<circle cx="7.84375" cy="22.9805" r="0.5" fill="#C0AF17"/>
<circle cx="10.1875" cy="22.9805" r="0.5" fill="#C0AF17"/>
<circle cx="12.5312" cy="22.9805" r="0.5" fill="#C0AF17"/>
<circle cx="40.6562" cy="22.9805" r="0.5" fill="#C0AF17"/>
<circle cx="43" cy="22.9805" r="0.5" fill="#C0AF17"/>
<circle cx="45.3438" cy="22.9805" r="0.5" fill="#C0AF17"/>
<circle cx="5.5" cy="24.1523" r="0.5" fill="#C0AF17"/>
<circle cx="7.84375" cy="24.1523" r="0.5" fill="#C0AF17"/>
<circle cx="10.1875" cy="24.1523" r="0.5" fill="#C0AF17"/>
<circle cx="12.5312" cy="24.1523" r="0.5" fill="#C0AF17"/>
<circle cx="40.6562" cy="24.1523" r="0.5" fill="#C0AF17"/>
<circle cx="43" cy="24.1523" r="0.5" fill="#C0AF17"/>
<circle cx="45.3438" cy="24.1523" r="0.5" fill="#C0AF17"/>
<circle cx="5.5" cy="25.3242" r="0.5" fill="#C0AF17"/>
<circle cx="6.67188" cy="25.3242" r="0.5" fill="#C0AF17"/>
<circle cx="9.01562" cy="25.3242" r="0.5" fill="#C0AF17"/>
<circle cx="11.3594" cy="25.3242" r="0.5" fill="#C0AF17"/>
<circle cx="12.5312" cy="25.3242" r="0.5" fill="#C0AF17"/>
<circle cx="40.6562" cy="25.3242" r="0.5" fill="#C0AF17"/>
<circle cx="43" cy="25.3242" r="0.5" fill="#C0AF17"/>
<circle cx="45.3438" cy="25.3242" r="0.5" fill="#C0AF17"/>
<circle cx="5.5" cy="26.4961" r="0.5" fill="#C0AF17"/>
<circle cx="6.67188" cy="26.4961" r="0.5" fill="#C0AF17"/>
<circle cx="9.01562" cy="26.4961" r="0.5" fill="#C0AF17"/>
<circle cx="11.3594" cy="26.4961" r="0.5" fill="#C0AF17"/>
<circle cx="12.5312" cy="26.4961" r="0.5" fill="#C0AF17"/>
<circle cx="40.6562" cy="26.4961" r="0.5" fill="#C0AF17"/>
<circle cx="43" cy="26.4961" r="0.5" fill="#C0AF17"/>
<circle cx="45.3438" cy="26.4961" r="0.5" fill="#C0AF17"/>
<circle cx="5.5" cy="27.668" r="0.5" fill="#C0AF17"/>
<circle cx="6.67188" cy="27.668" r="0.5" fill="#C0AF17"/>
<circle cx="9.01562" cy="27.668" r="0.5" fill="#C0AF17"/>
<circle cx="40.6562" cy="27.668" r="0.5" fill="#C0AF17"/>
<circle cx="43" cy="27.668" r="0.5" fill="#C0AF17"/>
<circle cx="45.3438" cy="27.668" r="0.5" fill="#C0AF17"/>
<circle cx="5.5" cy="28.8398" r="0.5" fill="#C0AF17"/>
<circle cx="6.67188" cy="28.8398" r="0.5" fill="#C0AF17"/>
<circle cx="9.01562" cy="28.8398" r="0.5" fill="#C0AF17"/>
<circle cx="46.5156" cy="28.8398" r="0.5" fill="#C0AF17"/>
<circle cx="5.5" cy="30.0117" r="0.5" fill="#C0AF17"/>
<circle cx="6.67188" cy="30.0117" r="0.5" fill="#C0AF17"/>
<circle cx="9.01562" cy="30.0117" r="0.5" fill="#C0AF17"/>
<circle cx="13.7031" cy="30.0117" r="0.5" fill="#C0AF17"/>
<circle cx="39.4844" cy="30.0117" r="0.5" fill="#C0AF17"/>
<circle cx="41.8281" cy="30.0117" r="0.5" fill="#C0AF17"/>
<circle cx="44.1719" cy="30.0117" r="0.5" fill="#C0AF17"/>
<circle cx="46.5156" cy="30.0117" r="0.5" fill="#C0AF17"/>
<circle cx="5.5" cy="31.1836" r="0.5" fill="#C0AF17"/>
<circle cx="6.67188" cy="31.1836" r="0.5" fill="#C0AF17"/>
<circle cx="9.01562" cy="31.1836" r="0.5" fill="#C0AF17"/>
<circle cx="11.3594" cy="31.1836" r="0.5" fill="#C0AF17"/>
<circle cx="12.5312" cy="31.1836" r="0.5" fill="#C0AF17"/>
<circle cx="13.7031" cy="31.1836" r="0.5" fill="#C0AF17"/>
<circle cx="39.4844" cy="31.1836" r="0.5" fill="#C0AF17"/>
<circle cx="41.8281" cy="31.1836" r="0.5" fill="#C0AF17"/>
<circle cx="44.1719" cy="31.1836" r="0.5" fill="#C0AF17"/>
<circle cx="46.5156" cy="31.1836" r="0.5" fill="#C0AF17"/>
<circle cx="5.5" cy="32.3555" r="0.5" fill="#C0AF17"/>
<circle cx="6.67188" cy="32.3555" r="0.5" fill="#C0AF17"/>
<circle cx="9.01562" cy="32.3555" r="0.5" fill="#C0AF17"/>
<circle cx="11.3594" cy="32.3555" r="0.5" fill="#C0AF17"/>
<circle cx="12.5312" cy="32.3555" r="0.5" fill="#C0AF17"/>
<circle cx="40.6562" cy="32.3555" r="0.5" fill="#C0AF17"/>
<circle cx="43" cy="32.3555" r="0.5" fill="#C0AF17"/>
<circle cx="45.3438" cy="32.3555" r="0.5" fill="#C0AF17"/>
<circle cx="46.5156" cy="32.3555" r="0.5" fill="#C0AF17"/>
<circle cx="5.5" cy="33.5273" r="0.5" fill="#C0AF17"/>
<circle cx="6.67188" cy="33.5273" r="0.5" fill="#C0AF17"/>
<circle cx="7.84375" cy="33.5273" r="0.5" fill="#C0AF17"/>
<circle cx="9.01562" cy="33.5273" r="0.5" fill="#C0AF17"/>
<circle cx="11.3594" cy="33.5273" r="0.5" fill="#C0AF17"/>
<circle cx="14.875" cy="33.5273" r="0.5" fill="#C0AF17"/>
<circle cx="38.3125" cy="33.5273" r="0.5" fill="#C0AF17"/>
<circle cx="40.6562" cy="33.5273" r="0.5" fill="#C0AF17"/>
<circle cx="41.8281" cy="33.5273" r="0.5" fill="#C0AF17"/>
<circle cx="45.3438" cy="33.5273" r="0.5" fill="#C0AF17"/>
<circle cx="46.5156" cy="33.5273" r="0.5" fill="#C0AF17"/>
<circle cx="6.67188" cy="34.6992" r="0.5" fill="#C0AF17"/>
<circle cx="7.84375" cy="34.6992" r="0.5" fill="#C0AF17"/>
<circle cx="9.01562" cy="34.6992" r="0.5" fill="#C0AF17"/>
<circle cx="13.7031" cy="34.6992" r="0.5" fill="#C0AF17"/>
<circle cx="16.0469" cy="34.6992" r="0.5" fill="#C0AF17"/>
<circle cx="37.1406" cy="34.6992" r="0.5" fill="#C0AF17"/>
<circle cx="39.4844" cy="34.6992" r="0.5" fill="#C0AF17"/>
<circle cx="44.1719" cy="34.6992" r="0.5" fill="#C0AF17"/>
<circle cx="45.3438" cy="34.6992" r="0.5" fill="#C0AF17"/>
<circle cx="6.67188" cy="35.8711" r="0.5" fill="#C0AF17"/>
<circle cx="7.84375" cy="35.8711" r="0.5" fill="#C0AF17"/>
<circle cx="9.01562" cy="35.8711" r="0.5" fill="#C0AF17"/>
<circle cx="12.5312" cy="35.8711" r="0.5" fill="#C0AF17"/>
<circle cx="13.7031" cy="35.8711" r="0.5" fill="#C0AF17"/>
<circle cx="35.9688" cy="35.8711" r="0.5" fill="#C0AF17"/>
<circle cx="38.3125" cy="35.8711" r="0.5" fill="#C0AF17"/>
<circle cx="43" cy="35.8711" r="0.5" fill="#C0AF17"/>
<circle cx="44.1719" cy="35.8711" r="0.5" fill="#C0AF17"/>
<circle cx="45.3438" cy="35.8711" r="0.5" fill="#C0AF17"/>
<circle cx="7.84375" cy="37.043" r="0.5" fill="#C0AF17"/>
<circle cx="9.01562" cy="37.043" r="0.5" fill="#C0AF17"/>
<circle cx="10.1875" cy="37.043" r="0.5" fill="#C0AF17"/>
<circle cx="12.5312" cy="37.043" r="0.5" fill="#C0AF17"/>
<circle cx="14.875" cy="37.043" r="0.5" fill="#C0AF17"/>
<circle cx="17.2188" cy="37.043" r="0.5" fill="#C0AF17"/>
<circle cx="34.7969" cy="37.043" r="0.5" fill="#C0AF17"/>
<circle cx="37.1406" cy="37.043" r="0.5" fill="#C0AF17"/>
<circle cx="38.3125" cy="37.043" r="0.5" fill="#C0AF17"/>
<circle cx="43" cy="37.043" r="0.5" fill="#C0AF17"/>
<circle cx="44.1719" cy="37.043" r="0.5" fill="#C0AF17"/>
<circle cx="9.01562" cy="38.2148" r="0.5" fill="#C0AF17"/>
<circle cx="10.1875" cy="38.2148" r="0.5" fill="#C0AF17"/>
<circle cx="13.7031" cy="38.2148" r="0.5" fill="#C0AF17"/>
<circle cx="16.0469" cy="38.2148" r="0.5" fill="#C0AF17"/>
<circle cx="18.3906" cy="38.2148" r="0.5" fill="#C0AF17"/>
<circle cx="19.5625" cy="38.2148" r="0.5" fill="#C0AF17"/>
<circle cx="33.625" cy="38.2148" r="0.5" fill="#C0AF17"/>
<circle cx="34.7969" cy="38.2148" r="0.5" fill="#C0AF17"/>
<circle cx="37.1406" cy="38.2148" r="0.5" fill="#C0AF17"/>
<circle cx="40.6562" cy="38.2148" r="0.5" fill="#C0AF17"/>
<circle cx="41.8281" cy="38.2148" r="0.5" fill="#C0AF17"/>
<circle cx="43" cy="38.2148" r="0.5" fill="#C0AF17"/>
<circle cx="44.1719" cy="38.2148" r="0.5" fill="#C0AF17"/>
<circle cx="10.1875" cy="39.3867" r="0.5" fill="#C0AF17"/>
<circle cx="11.3594" cy="39.3867" r="0.5" fill="#C0AF17"/>
<circle cx="13.7031" cy="39.3867" r="0.5" fill="#C0AF17"/>
<circle cx="17.2188" cy="39.3867" r="0.5" fill="#C0AF17"/>
<circle cx="20.7344" cy="39.3867" r="0.5" fill="#C0AF17"/>
<circle cx="31.2812" cy="39.3867" r="0.5" fill="#C0AF17"/>
<circle cx="32.4531" cy="39.3867" r="0.5" fill="#C0AF17"/>
<circle cx="33.625" cy="39.3867" r="0.5" fill="#C0AF17"/>
<circle cx="34.7969" cy="39.3867" r="0.5" fill="#C0AF17"/>
<circle cx="39.4844" cy="39.3867" r="0.5" fill="#C0AF17"/>
<circle cx="40.6562" cy="39.3867" r="0.5" fill="#C0AF17"/>
<circle cx="41.8281" cy="39.3867" r="0.5" fill="#C0AF17"/>
<circle cx="43" cy="39.3867" r="0.5" fill="#C0AF17"/>
<circle cx="11.3594" cy="40.5586" r="0.5" fill="#C0AF17"/>
<circle cx="12.5312" cy="40.5586" r="0.5" fill="#C0AF17"/>
<circle cx="14.875" cy="40.5586" r="0.5" fill="#C0AF17"/>
<circle cx="18.3906" cy="40.5586" r="0.5" fill="#C0AF17"/>
<circle cx="21.9062" cy="40.5586" r="0.5" fill="#C0AF17"/>
<circle cx="23.0781" cy="40.5586" r="0.5" fill="#C0AF17"/>
<circle cx="27.7656" cy="40.5586" r="0.5" fill="#C0AF17"/>
<circle cx="28.9375" cy="40.5586" r="0.5" fill="#C0AF17"/>
<circle cx="37.1406" cy="40.5586" r="0.5" fill="#C0AF17"/>
<circle cx="38.3125" cy="40.5586" r="0.5" fill="#C0AF17"/>
<circle cx="40.6562" cy="40.5586" r="0.5" fill="#C0AF17"/>
<circle cx="41.8281" cy="40.5586" r="0.5" fill="#C0AF17"/>
<circle cx="43" cy="40.5586" r="0.5" fill="#C0AF17"/>
<circle cx="12.5312" cy="41.7305" r="0.5" fill="#C0AF17"/>
<circle cx="13.7031" cy="41.7305" r="0.5" fill="#C0AF17"/>
<circle cx="16.0469" cy="41.7305" r="0.5" fill="#C0AF17"/>
<circle cx="19.5625" cy="41.7305" r="0.5" fill="#C0AF17"/>
<circle cx="20.7344" cy="41.7305" r="0.5" fill="#C0AF17"/>
<circle cx="25.4219" cy="41.7305" r="0.5" fill="#C0AF17"/>
<circle cx="26.5938" cy="41.7305" r="0.5" fill="#C0AF17"/>
<circle cx="27.7656" cy="41.7305" r="0.5" fill="#C0AF17"/>
<circle cx="28.9375" cy="41.7305" r="0.5" fill="#C0AF17"/>
<circle cx="30.1094" cy="41.7305" r="0.5" fill="#C0AF17"/>
<circle cx="31.2812" cy="41.7305" r="0.5" fill="#C0AF17"/>
<circle cx="32.4531" cy="41.7305" r="0.5" fill="#C0AF17"/>
<circle cx="33.625" cy="41.7305" r="0.5" fill="#C0AF17"/>
<circle cx="34.7969" cy="41.7305" r="0.5" fill="#C0AF17"/>
<circle cx="35.9688" cy="41.7305" r="0.5" fill="#C0AF17"/>
<circle cx="38.3125" cy="41.7305" r="0.5" fill="#C0AF17"/>
<circle cx="39.4844" cy="41.7305" r="0.5" fill="#C0AF17"/>
<circle cx="40.6562" cy="41.7305" r="0.5" fill="#C0AF17"/>
<circle cx="41.8281" cy="41.7305" r="0.5" fill="#C0AF17"/>
<circle cx="14.875" cy="42.9023" r="0.5" fill="#C0AF17"/>
<circle cx="17.2188" cy="42.9023" r="0.5" fill="#C0AF17"/>
<circle cx="21.9062" cy="42.9023" r="0.5" fill="#C0AF17"/>
<circle cx="23.0781" cy="42.9023" r="0.5" fill="#C0AF17"/>
<circle cx="35.9688" cy="42.9023" r="0.5" fill="#C0AF17"/>
<circle cx="37.1406" cy="42.9023" r="0.5" fill="#C0AF17"/>
<circle cx="38.3125" cy="42.9023" r="0.5" fill="#C0AF17"/>
<circle cx="39.4844" cy="42.9023" r="0.5" fill="#C0AF17"/>
<circle cx="40.6562" cy="42.9023" r="0.5" fill="#C0AF17"/>
<circle cx="18.3906" cy="44.0742" r="0.5" fill="#C0AF17"/>
<circle cx="19.5625" cy="44.0742" r="0.5" fill="#C0AF17"/>
<circle cx="24.25" cy="44.0742" r="0.5" fill="#C0AF17"/>
<circle cx="25.4219" cy="44.0742" r="0.5" fill="#C0AF17"/>
<circle cx="26.5938" cy="44.0742" r="0.5" fill="#C0AF17"/>
<circle cx="27.7656" cy="44.0742" r="0.5" fill="#C0AF17"/>
<circle cx="28.9375" cy="44.0742" r="0.5" fill="#C0AF17"/>
<circle cx="30.1094" cy="44.0742" r="0.5" fill="#C0AF17"/>
<circle cx="31.2812" cy="44.0742" r="0.5" fill="#C0AF17"/>
<circle cx="32.4531" cy="44.0742" r="0.5" fill="#C0AF17"/>
<circle cx="33.625" cy="44.0742" r="0.5" fill="#C0AF17"/>
<circle cx="34.7969" cy="44.0742" r="0.5" fill="#C0AF17"/>
<circle cx="38.3125" cy="44.0742" r="0.5" fill="#C0AF17"/>
<circle cx="39.4844" cy="44.0742" r="0.5" fill="#C0AF17"/>
<circle cx="20.7344" cy="45.2461" r="0.5" fill="#C0AF17"/>
<circle cx="21.9062" cy="45.2461" r="0.5" fill="#C0AF17"/>
<circle cx="34.7969" cy="45.2461" r="0.5" fill="#C0AF17"/>
<circle cx="35.9688" cy="45.2461" r="0.5" fill="#C0AF17"/>
<circle cx="37.1406" cy="45.2461" r="0.5" fill="#C0AF17"/>
<circle cx="23.0781" cy="46.418" r="0.5" fill="#C0AF17"/>
<circle cx="24.25" cy="46.418" r="0.5" fill="#C0AF17"/>
<circle cx="25.4219" cy="46.418" r="0.5" fill="#C0AF17"/>
<circle cx="26.5938" cy="46.418" r="0.5" fill="#C0AF17"/>
<circle cx="27.7656" cy="46.418" r="0.5" fill="#C0AF17"/>
<circle cx="28.9375" cy="46.418" r="0.5" fill="#C0AF17"/>
<circle cx="30.1094" cy="46.418" r="0.5" fill="#C0AF17"/>
<circle cx="31.2812" cy="46.418" r="0.5" fill="#C0AF17"/>
<circle cx="32.4531" cy="46.418" r="0.5" fill="#C0AF17"/>
<circle cx="33.625" cy="46.418" r="0.5" fill="#C0AF17"/>
<circle cx="34.7969" cy="46.418" r="0.5" fill="#C0AF17"/>
<circle cx="17.1406" cy="18.9961" r="0.5" fill="#C0AF17"/>
<circle cx="21.1406" cy="18.9961" r="0.5" fill="#C0AF17"/>
<circle cx="23.1406" cy="18.9961" r="0.5" fill="#C0AF17"/>
<circle cx="24.1406" cy="18.9961" r="0.5" fill="#C0AF17"/>
<circle cx="25.1406" cy="18.9961" r="0.5" fill="#C0AF17"/>
<circle cx="27.1406" cy="18.9961" r="0.5" fill="#C0AF17"/>
<circle cx="17.1406" cy="19.9961" r="0.5" fill="#C0AF17"/>
<circle cx="18.1406" cy="19.9961" r="0.5" fill="#C0AF17"/>
<circle cx="20.1406" cy="19.9961" r="0.5" fill="#C0AF17"/>
<circle cx="21.1406" cy="19.9961" r="0.5" fill="#C0AF17"/>
<circle cx="24.1406" cy="19.9961" r="0.5" fill="#C0AF17"/>
<circle cx="26.1406" cy="19.9961" r="0.5" fill="#C0AF17"/>
<circle cx="21.1406" cy="20.9961" r="0.5" fill="#C0AF17"/>
<circle cx="23.1406" cy="20.9961" r="0.5" fill="#C0AF17"/>
<circle cx="26.1406" cy="20.9961" r="0.5" fill="#C0AF17"/>
<circle cx="27.1406" cy="20.9961" r="0.5" fill="#C0AF17"/>
<circle cx="28.1406" cy="20.9961" r="0.5" fill="#C0AF17"/>
<circle cx="24.1406" cy="24.9961" r="0.5" fill="#C0AF17"/>
<circle cx="26.1406" cy="24.9961" r="0.5" fill="#C0AF17"/>
<circle cx="27.1406" cy="24.9961" r="0.5" fill="#C0AF17"/>
<circle cx="28.1406" cy="24.9961" r="0.5" fill="#C0AF17"/>
<circle cx="20.1406" cy="25.9961" r="0.5" fill="#C0AF17"/>
<circle cx="21.1406" cy="25.9961" r="0.5" fill="#C0AF17"/>
<circle cx="24.1406" cy="25.9961" r="0.5" fill="#C0AF17"/>
<circle cx="26.1406" cy="25.9961" r="0.5" fill="#C0AF17"/>
<circle cx="27.1406" cy="25.9961" r="0.5" fill="#C0AF17"/>
<circle cx="29.1406" cy="25.9961" r="0.5" fill="#C0AF17"/>
<circle cx="31.1406" cy="25.9961" r="0.5" fill="#C0AF17"/>
<circle cx="32.1406" cy="25.9961" r="0.5" fill="#C0AF17"/>
<circle cx="34.1406" cy="25.9961" r="0.5" fill="#C0AF17"/>
<circle cx="35.1406" cy="25.9961" r="0.5" fill="#C0AF17"/>
<circle cx="23.1406" cy="26.9961" r="0.5" fill="#C0AF17"/>
<circle cx="24.1406" cy="26.9961" r="0.5" fill="#C0AF17"/>
<circle cx="26.1406" cy="26.9961" r="0.5" fill="#C0AF17"/>
<circle cx="27.1406" cy="26.9961" r="0.5" fill="#C0AF17"/>
<circle cx="31.1406" cy="26.9961" r="0.5" fill="#C0AF17"/>
<circle cx="32.1406" cy="26.9961" r="0.5" fill="#C0AF17"/>
<circle cx="34.1406" cy="26.9961" r="0.5" fill="#C0AF17"/>
<circle cx="35.1406" cy="26.9961" r="0.5" fill="#C0AF17"/>
<circle cx="19.1406" cy="29.9961" r="0.5" fill="#C0AF17"/>
<circle cx="20.1406" cy="29.9961" r="0.5" fill="#C0AF17"/>
<circle cx="22.1406" cy="29.9961" r="0.5" fill="#C0AF17"/>
<circle cx="24.1406" cy="29.9961" r="0.5" fill="#C0AF17"/>
<circle cx="25.1406" cy="29.9961" r="0.5" fill="#C0AF17"/>
<circle cx="31.1406" cy="29.9961" r="0.5" fill="#C0AF17"/>
<circle cx="33.1406" cy="29.9961" r="0.5" fill="#C0AF17"/>
<circle cx="35.1406" cy="29.9961" r="0.5" fill="#C0AF17"/>
<circle cx="36.1406" cy="29.9961" r="0.5" fill="#C0AF17"/>
<circle cx="19.1406" cy="30.9961" r="0.5" fill="#C0AF17"/>
<circle cx="20.1406" cy="30.9961" r="0.5" fill="#C0AF17"/>
<circle cx="22.1406" cy="30.9961" r="0.5" fill="#C0AF17"/>
<circle cx="25.1406" cy="30.9961" r="0.5" fill="#C0AF17"/>
<circle cx="27.1406" cy="30.9961" r="0.5" fill="#C0AF17"/>
<circle cx="28.1406" cy="30.9961" r="0.5" fill="#C0AF17"/>
<circle cx="31.1406" cy="30.9961" r="0.5" fill="#C0AF17"/>
<circle cx="32.1406" cy="30.9961" r="0.5" fill="#C0AF17"/>
<circle cx="33.1406" cy="30.9961" r="0.5" fill="#C0AF17"/>
<circle cx="17.1406" cy="31.9961" r="0.5" fill="#C0AF17"/>
<circle cx="19.1406" cy="31.9961" r="0.5" fill="#C0AF17"/>
<circle cx="20.1406" cy="31.9961" r="0.5" fill="#C0AF17"/>
<circle cx="22.1406" cy="31.9961" r="0.5" fill="#C0AF17"/>
<circle cx="25.1406" cy="31.9961" r="0.5" fill="#C0AF17"/>
<circle cx="28.1406" cy="31.9961" r="0.5" fill="#C0AF17"/>
<circle cx="31.1406" cy="31.9961" r="0.5" fill="#C0AF17"/>
<circle cx="33.1406" cy="31.9961" r="0.5" fill="#C0AF17"/>
<circle cx="35.1406" cy="32.9961" r="0.5" fill="#C0AF17"/>
<circle cx="36.1406" cy="32.9961" r="0.5" fill="#C0AF17"/>
</svg>
