<svg width="52" height="52" viewBox="0 0 52 52" fill="none" xmlns="http://www.w3.org/2000/svg">
<rect width="52" height="52" fill="white"/>
<circle cx="9.83588" cy="8.5" r="0.5" fill="#EC67B4"/>
<circle cx="11.1718" cy="8.5" r="0.5" fill="#EC67B4"/>
<circle cx="12.5076" cy="8.5" r="0.5" fill="#EC67B4"/>
<circle cx="13.8435" cy="8.5" r="0.5" fill="#EC67B4"/>
<circle cx="15.1794" cy="8.5" r="0.5" fill="#EC67B4"/>
<circle cx="23.1946" cy="8.5" r="0.5" fill="#BBC3E8"/>
<circle cx="24.5305" cy="8.5" r="0.5" fill="#BBC3E8"/>
<circle cx="25.8664" cy="8.5" r="0.5" fill="#BBC3E8"/>
<circle cx="27.2023" cy="8.5" r="0.5" fill="#BBC3E8"/>
<circle cx="28.5381" cy="8.5" r="0.5" fill="#BBC3E8"/>
<circle cx="36.5534" cy="8.50012" r="0.5" fill="#3968F6"/>
<circle cx="36.5535" cy="21.859" r="0.5" fill="#D8E8C7"/>
<circle cx="37.8893" cy="8.50012" r="0.5" fill="#3968F6"/>
<circle cx="37.8894" cy="21.859" r="0.5" fill="#D8E8C7"/>
<circle cx="39.2252" cy="8.50012" r="0.5" fill="#3968F6"/>
<circle cx="39.2253" cy="21.859" r="0.5" fill="#D8E8C7"/>
<circle cx="40.561" cy="8.50012" r="0.5" fill="#3968F6"/>
<circle cx="40.5612" cy="21.859" r="0.5" fill="#D8E8C7"/>
<circle cx="41.8969" cy="8.50012" r="0.5" fill="#3968F6"/>
<circle cx="41.897" cy="21.859" r="0.5" fill="#D8E8C7"/>
<circle cx="8.5" cy="9.83594" r="0.5" fill="#EC67B4"/>
<circle cx="9.83588" cy="9.83594" r="0.5" fill="#EC67B4"/>
<circle cx="11.1718" cy="9.83594" r="0.5" fill="#EC67B4"/>
<circle cx="12.5076" cy="9.83594" r="0.5" fill="#EC67B4"/>
<circle cx="13.8435" cy="9.83594" r="0.5" fill="#EC67B4"/>
<circle cx="15.1794" cy="9.83594" r="0.5" fill="#EC67B4"/>
<circle cx="16.5153" cy="9.83594" r="0.5" fill="#EC67B4"/>
<circle cx="21.8588" cy="9.83594" r="0.5" fill="#BBC3E8"/>
<circle cx="23.1946" cy="9.83594" r="0.5" fill="#BBC3E8"/>
<circle cx="24.5305" cy="9.83594" r="0.5" fill="#BBC3E8"/>
<circle cx="25.8664" cy="9.83594" r="0.5" fill="#BBC3E8"/>
<circle cx="27.2023" cy="9.83594" r="0.5" fill="#BBC3E8"/>
<circle cx="28.5381" cy="9.83594" r="0.5" fill="#BBC3E8"/>
<circle cx="29.874" cy="9.83594" r="0.5" fill="#BBC3E8"/>
<circle cx="35.2175" cy="9.83606" r="0.5" fill="#3968F6"/>
<circle cx="35.2177" cy="23.1949" r="0.5" fill="#D8E8C7"/>
<circle cx="36.5534" cy="9.83606" r="0.5" fill="#3968F6"/>
<circle cx="36.5535" cy="23.1949" r="0.5" fill="#D8E8C7"/>
<circle cx="37.8893" cy="9.83606" r="0.5" fill="#3968F6"/>
<circle cx="37.8894" cy="23.1949" r="0.5" fill="#D8E8C7"/>
<circle cx="39.2252" cy="9.83606" r="0.5" fill="#3968F6"/>
<circle cx="39.2253" cy="23.1949" r="0.5" fill="#D8E8C7"/>
<circle cx="40.561" cy="9.83606" r="0.5" fill="#3968F6"/>
<circle cx="40.5612" cy="23.1949" r="0.5" fill="#D8E8C7"/>
<circle cx="41.8969" cy="9.83606" r="0.5" fill="#3968F6"/>
<circle cx="41.897" cy="23.1949" r="0.5" fill="#D8E8C7"/>
<circle cx="43.2328" cy="9.83606" r="0.5" fill="#3968F6"/>
<circle cx="43.2329" cy="23.1949" r="0.5" fill="#D8E8C7"/>
<circle cx="8.5" cy="11.1718" r="0.5" fill="#EC67B4"/>
<circle cx="9.83588" cy="11.1718" r="0.5" fill="#EC67B4"/>
<circle cx="11.1718" cy="11.1718" r="0.5" fill="#EC67B4"/>
<circle cx="12.5076" cy="11.1718" r="0.5" fill="#EC67B4"/>
<circle cx="13.8435" cy="11.1718" r="0.5" fill="#EC67B4"/>
<circle cx="15.1794" cy="11.1718" r="0.5" fill="#EC67B4"/>
<circle cx="16.5153" cy="11.1718" r="0.5" fill="#EC67B4"/>
<circle cx="21.8588" cy="11.1718" r="0.5" fill="#BBC3E8"/>
<circle cx="23.1946" cy="11.1718" r="0.5" fill="#BBC3E8"/>
<circle cx="24.5305" cy="11.1718" r="0.5" fill="#BBC3E8"/>
<circle cx="25.8664" cy="11.1718" r="0.5" fill="#BBC3E8"/>
<circle cx="27.2023" cy="11.1718" r="0.5" fill="#BBC3E8"/>
<circle cx="28.5381" cy="11.1718" r="0.5" fill="#BBC3E8"/>
<circle cx="29.874" cy="11.1718" r="0.5" fill="#BBC3E8"/>
<circle cx="35.2175" cy="11.172" r="0.5" fill="#3968F6"/>
<circle cx="35.2177" cy="24.5309" r="0.5" fill="#D8E8C7"/>
<circle cx="36.5534" cy="11.172" r="0.5" fill="#3968F6"/>
<circle cx="36.5535" cy="24.5309" r="0.5" fill="#D8E8C7"/>
<circle cx="37.8893" cy="11.172" r="0.5" fill="#3968F6"/>
<circle cx="37.8894" cy="24.5309" r="0.5" fill="#D8E8C7"/>
<circle cx="39.2252" cy="11.172" r="0.5" fill="#3968F6"/>
<circle cx="39.2253" cy="24.5309" r="0.5" fill="#D8E8C7"/>
<circle cx="40.561" cy="11.172" r="0.5" fill="#3968F6"/>
<circle cx="40.5612" cy="24.5309" r="0.5" fill="#D8E8C7"/>
<circle cx="41.8969" cy="11.172" r="0.5" fill="#3968F6"/>
<circle cx="41.897" cy="24.5309" r="0.5" fill="#D8E8C7"/>
<circle cx="43.2328" cy="11.172" r="0.5" fill="#3968F6"/>
<circle cx="43.2329" cy="24.5309" r="0.5" fill="#D8E8C7"/>
<circle cx="8.5" cy="12.5077" r="0.5" fill="#EC67B4"/>
<circle cx="9.83588" cy="12.5077" r="0.5" fill="#EC67B4"/>
<circle cx="11.1718" cy="12.5077" r="0.5" fill="#EC67B4"/>
<circle cx="12.5076" cy="12.5077" r="0.5" fill="#EC67B4"/>
<circle cx="13.8435" cy="12.5077" r="0.5" fill="#EC67B4"/>
<circle cx="15.1794" cy="12.5077" r="0.5" fill="#EC67B4"/>
<circle cx="16.5153" cy="12.5077" r="0.5" fill="#EC67B4"/>
<circle cx="21.8588" cy="12.5077" r="0.5" fill="#BBC3E8"/>
<circle cx="23.1946" cy="12.5077" r="0.5" fill="#BBC3E8"/>
<circle cx="24.5305" cy="12.5077" r="0.5" fill="#BBC3E8"/>
<circle cx="25.8664" cy="12.5077" r="0.5" fill="#BBC3E8"/>
<circle cx="27.2023" cy="12.5077" r="0.5" fill="#BBC3E8"/>
<circle cx="28.5381" cy="12.5077" r="0.5" fill="#BBC3E8"/>
<circle cx="29.874" cy="12.5077" r="0.5" fill="#BBC3E8"/>
<circle cx="35.2175" cy="12.5074" r="0.5" fill="#3968F6"/>
<circle cx="35.2177" cy="25.8663" r="0.5" fill="#D8E8C7"/>
<circle cx="36.5534" cy="12.5074" r="0.5" fill="#3968F6"/>
<circle cx="36.5535" cy="25.8663" r="0.5" fill="#D8E8C7"/>
<circle cx="37.8893" cy="12.5074" r="0.5" fill="#3968F6"/>
<circle cx="37.8894" cy="25.8663" r="0.5" fill="#D8E8C7"/>
<circle cx="39.2252" cy="12.5074" r="0.5" fill="#3968F6"/>
<circle cx="39.2253" cy="25.8663" r="0.5" fill="#D8E8C7"/>
<circle cx="40.561" cy="12.5074" r="0.5" fill="#3968F6"/>
<circle cx="40.5612" cy="25.8663" r="0.5" fill="#D8E8C7"/>
<circle cx="41.8969" cy="12.5074" r="0.5" fill="#3968F6"/>
<circle cx="41.897" cy="25.8663" r="0.5" fill="#D8E8C7"/>
<circle cx="43.2328" cy="12.5074" r="0.5" fill="#3968F6"/>
<circle cx="43.2329" cy="25.8663" r="0.5" fill="#D8E8C7"/>
<circle cx="8.5" cy="13.8435" r="0.5" fill="#EC67B4"/>
<circle cx="9.83588" cy="13.8435" r="0.5" fill="#EC67B4"/>
<circle cx="11.1718" cy="13.8435" r="0.5" fill="#EC67B4"/>
<circle cx="12.5076" cy="13.8435" r="0.5" fill="#EC67B4"/>
<circle cx="13.8435" cy="13.8435" r="0.5" fill="#EC67B4"/>
<circle cx="15.1794" cy="13.8435" r="0.5" fill="#EC67B4"/>
<circle cx="16.5153" cy="13.8435" r="0.5" fill="#EC67B4"/>
<circle cx="21.8588" cy="13.8435" r="0.5" fill="#BBC3E8"/>
<circle cx="23.1946" cy="13.8435" r="0.5" fill="#BBC3E8"/>
<circle cx="24.5305" cy="13.8435" r="0.5" fill="#BBC3E8"/>
<circle cx="25.8664" cy="13.8435" r="0.5" fill="#BBC3E8"/>
<circle cx="27.2023" cy="13.8435" r="0.5" fill="#BBC3E8"/>
<circle cx="28.5381" cy="13.8435" r="0.5" fill="#BBC3E8"/>
<circle cx="29.874" cy="13.8435" r="0.5" fill="#BBC3E8"/>
<circle cx="35.2175" cy="13.8434" r="0.5" fill="#3968F6"/>
<circle cx="35.2177" cy="27.2023" r="0.5" fill="#D8E8C7"/>
<circle cx="36.5534" cy="13.8434" r="0.5" fill="#3968F6"/>
<circle cx="36.5535" cy="27.2023" r="0.5" fill="#D8E8C7"/>
<circle cx="37.8893" cy="13.8434" r="0.5" fill="#3968F6"/>
<circle cx="37.8894" cy="27.2023" r="0.5" fill="#D8E8C7"/>
<circle cx="39.2252" cy="13.8434" r="0.5" fill="#3968F6"/>
<circle cx="39.2253" cy="27.2023" r="0.5" fill="#D8E8C7"/>
<circle cx="40.561" cy="13.8434" r="0.5" fill="#3968F6"/>
<circle cx="40.5612" cy="27.2023" r="0.5" fill="#D8E8C7"/>
<circle cx="41.8969" cy="13.8434" r="0.5" fill="#3968F6"/>
<circle cx="41.897" cy="27.2023" r="0.5" fill="#D8E8C7"/>
<circle cx="43.2328" cy="13.8434" r="0.5" fill="#3968F6"/>
<circle cx="43.2329" cy="27.2023" r="0.5" fill="#D8E8C7"/>
<circle cx="8.5" cy="15.1794" r="0.5" fill="#EC67B4"/>
<circle cx="9.83588" cy="15.1794" r="0.5" fill="#EC67B4"/>
<circle cx="11.1718" cy="15.1794" r="0.5" fill="#EC67B4"/>
<circle cx="12.5076" cy="15.1794" r="0.5" fill="#EC67B4"/>
<circle cx="13.8435" cy="15.1794" r="0.5" fill="#EC67B4"/>
<circle cx="15.1794" cy="15.1794" r="0.5" fill="#EC67B4"/>
<circle cx="16.5153" cy="15.1794" r="0.5" fill="#EC67B4"/>
<circle cx="21.8588" cy="15.1794" r="0.5" fill="#BBC3E8"/>
<circle cx="23.1946" cy="15.1794" r="0.5" fill="#BBC3E8"/>
<circle cx="24.5305" cy="15.1794" r="0.5" fill="#BBC3E8"/>
<circle cx="25.8664" cy="15.1794" r="0.5" fill="#BBC3E8"/>
<circle cx="27.2023" cy="15.1794" r="0.5" fill="#BBC3E8"/>
<circle cx="28.5381" cy="15.1794" r="0.5" fill="#BBC3E8"/>
<circle cx="29.874" cy="15.1794" r="0.5" fill="#BBC3E8"/>
<circle cx="35.2175" cy="15.1793" r="0.5" fill="#3968F6"/>
<circle cx="35.2177" cy="28.5382" r="0.5" fill="#D8E8C7"/>
<circle cx="36.5534" cy="15.1793" r="0.5" fill="#3968F6"/>
<circle cx="36.5535" cy="28.5382" r="0.5" fill="#D8E8C7"/>
<circle cx="37.8893" cy="15.1793" r="0.5" fill="#3968F6"/>
<circle cx="37.8894" cy="28.5382" r="0.5" fill="#D8E8C7"/>
<circle cx="39.2252" cy="15.1793" r="0.5" fill="#3968F6"/>
<circle cx="39.2253" cy="28.5382" r="0.5" fill="#D8E8C7"/>
<circle cx="40.561" cy="15.1793" r="0.5" fill="#3968F6"/>
<circle cx="40.5612" cy="28.5382" r="0.5" fill="#D8E8C7"/>
<circle cx="41.8969" cy="15.1793" r="0.5" fill="#3968F6"/>
<circle cx="41.897" cy="28.5382" r="0.5" fill="#D8E8C7"/>
<circle cx="43.2328" cy="15.1793" r="0.5" fill="#3968F6"/>
<circle cx="43.2329" cy="28.5382" r="0.5" fill="#D8E8C7"/>
<circle cx="9.83588" cy="16.5153" r="0.5" fill="#EC67B4"/>
<circle cx="11.1718" cy="16.5153" r="0.5" fill="#EC67B4"/>
<circle cx="12.5076" cy="16.5153" r="0.5" fill="#EC67B4"/>
<circle cx="13.8435" cy="16.5153" r="0.5" fill="#EC67B4"/>
<circle cx="15.1794" cy="16.5153" r="0.5" fill="#EC67B4"/>
<circle cx="23.1946" cy="16.5153" r="0.5" fill="#BBC3E8"/>
<circle cx="24.5305" cy="16.5153" r="0.5" fill="#BBC3E8"/>
<circle cx="25.8664" cy="16.5153" r="0.5" fill="#BBC3E8"/>
<circle cx="27.2023" cy="16.5153" r="0.5" fill="#BBC3E8"/>
<circle cx="28.5381" cy="16.5153" r="0.5" fill="#BBC3E8"/>
<circle cx="36.5534" cy="16.5153" r="0.5" fill="#3968F6"/>
<circle cx="36.5535" cy="29.8741" r="0.5" fill="#D8E8C7"/>
<circle cx="37.8893" cy="16.5153" r="0.5" fill="#3968F6"/>
<circle cx="37.8894" cy="29.8741" r="0.5" fill="#D8E8C7"/>
<circle cx="39.2252" cy="16.5153" r="0.5" fill="#3968F6"/>
<circle cx="39.2253" cy="29.8741" r="0.5" fill="#D8E8C7"/>
<circle cx="40.561" cy="16.5153" r="0.5" fill="#3968F6"/>
<circle cx="40.5612" cy="29.8741" r="0.5" fill="#D8E8C7"/>
<circle cx="41.8969" cy="16.5153" r="0.5" fill="#3968F6"/>
<circle cx="41.897" cy="29.8741" r="0.5" fill="#D8E8C7"/>
<circle cx="9.83588" cy="21.8588" r="0.5" fill="#F5D1D6"/>
<circle cx="11.1718" cy="21.8588" r="0.5" fill="#F5D1D6"/>
<circle cx="12.5076" cy="21.8588" r="0.5" fill="#F5D1D6"/>
<circle cx="13.8435" cy="21.8588" r="0.5" fill="#F5D1D6"/>
<circle cx="15.1794" cy="21.8588" r="0.5" fill="#F5D1D6"/>
<circle cx="8.5" cy="23.1947" r="0.5" fill="#F5D1D6"/>
<circle cx="9.83588" cy="23.1947" r="0.5" fill="#F5D1D6"/>
<circle cx="11.1718" cy="23.1947" r="0.5" fill="#F5D1D6"/>
<circle cx="12.5076" cy="23.1947" r="0.5" fill="#F5D1D6"/>
<circle cx="13.8435" cy="23.1947" r="0.5" fill="#F5D1D6"/>
<circle cx="15.1794" cy="23.1947" r="0.5" fill="#F5D1D6"/>
<circle cx="16.5153" cy="23.1947" r="0.5" fill="#F5D1D6"/>
<circle cx="25.8664" cy="23.1947" r="0.5" fill="#DEDEDE"/>
<circle cx="8.5" cy="24.5306" r="0.5" fill="#F5D1D6"/>
<circle cx="9.83588" cy="24.5306" r="0.5" fill="#F5D1D6"/>
<circle cx="11.1718" cy="24.5306" r="0.5" fill="#F5D1D6"/>
<circle cx="12.5076" cy="24.5306" r="0.5" fill="#F5D1D6"/>
<circle cx="13.8435" cy="24.5306" r="0.5" fill="#F5D1D6"/>
<circle cx="15.1794" cy="24.5306" r="0.5" fill="#F5D1D6"/>
<circle cx="16.5153" cy="24.5306" r="0.5" fill="#F5D1D6"/>
<circle cx="24.5305" cy="24.5306" r="0.5" fill="#DEDEDE"/>
<circle cx="25.8664" cy="24.5306" r="0.5" fill="#DEDEDE"/>
<circle cx="27.2023" cy="24.5306" r="0.5" fill="#DEDEDE"/>
<circle cx="8.5" cy="25.8665" r="0.5" fill="#F5D1D6"/>
<circle cx="9.83588" cy="25.8665" r="0.5" fill="#F5D1D6"/>
<circle cx="11.1718" cy="25.8665" r="0.5" fill="#F5D1D6"/>
<circle cx="12.5076" cy="25.8665" r="0.5" fill="#F5D1D6"/>
<circle cx="13.8435" cy="25.8665" r="0.5" fill="#F5D1D6"/>
<circle cx="15.1794" cy="25.8665" r="0.5" fill="#F5D1D6"/>
<circle cx="16.5153" cy="25.8665" r="0.5" fill="#F5D1D6"/>
<circle cx="23.1946" cy="25.8665" r="0.5" fill="#DEDEDE"/>
<circle cx="24.5305" cy="25.8665" r="0.5" fill="#DEDEDE"/>
<circle cx="25.8664" cy="25.8665" r="0.5" fill="#DEDEDE"/>
<circle cx="27.2023" cy="25.8665" r="0.5" fill="#DEDEDE"/>
<circle cx="28.5381" cy="25.8665" r="0.5" fill="#DEDEDE"/>
<circle cx="8.5" cy="27.2024" r="0.5" fill="#F5D1D6"/>
<circle cx="9.83588" cy="27.2024" r="0.5" fill="#F5D1D6"/>
<circle cx="11.1718" cy="27.2024" r="0.5" fill="#F5D1D6"/>
<circle cx="12.5076" cy="27.2024" r="0.5" fill="#F5D1D6"/>
<circle cx="13.8435" cy="27.2024" r="0.5" fill="#F5D1D6"/>
<circle cx="15.1794" cy="27.2024" r="0.5" fill="#F5D1D6"/>
<circle cx="16.5153" cy="27.2024" r="0.5" fill="#F5D1D6"/>
<circle cx="25.8664" cy="27.2023" r="0.5" fill="#DEDEDE"/>
<circle cx="24.5309" cy="27.0975" r="0.5" fill="#DEDEDE"/>
<circle cx="27.2023" cy="27.2024" r="0.5" fill="#DEDEDE"/>
<circle cx="8.5" cy="28.5382" r="0.5" fill="#F5D1D6"/>
<circle cx="9.83588" cy="28.5382" r="0.5" fill="#F5D1D6"/>
<circle cx="11.1718" cy="28.5382" r="0.5" fill="#F5D1D6"/>
<circle cx="12.5076" cy="28.5382" r="0.5" fill="#F5D1D6"/>
<circle cx="13.8435" cy="28.5382" r="0.5" fill="#F5D1D6"/>
<circle cx="15.1794" cy="28.5382" r="0.5" fill="#F5D1D6"/>
<circle cx="16.5153" cy="28.5382" r="0.5" fill="#F5D1D6"/>
<circle cx="25.8664" cy="28.5382" r="0.5" fill="#DEDEDE"/>
<circle cx="9.83588" cy="29.8741" r="0.5" fill="#F5D1D6"/>
<circle cx="11.1718" cy="29.8741" r="0.5" fill="#F5D1D6"/>
<circle cx="12.5076" cy="29.8741" r="0.5" fill="#F5D1D6"/>
<circle cx="13.8435" cy="29.8741" r="0.5" fill="#F5D1D6"/>
<circle cx="15.1794" cy="29.8741" r="0.5" fill="#F5D1D6"/>
<circle cx="9.83588" cy="35.2177" r="0.5" fill="#F3683C"/>
<circle cx="11.1718" cy="35.2177" r="0.5" fill="#F3683C"/>
<circle cx="12.5076" cy="35.2177" r="0.5" fill="#F3683C"/>
<circle cx="13.8435" cy="35.2177" r="0.5" fill="#F3683C"/>
<circle cx="15.1794" cy="35.2177" r="0.5" fill="#F3683C"/>
<circle cx="23.1946" cy="35.2177" r="0.5" fill="#F7E5BF"/>
<circle cx="24.5305" cy="35.2177" r="0.5" fill="#F7E5BF"/>
<circle cx="25.8664" cy="35.2177" r="0.5" fill="#F7E5BF"/>
<circle cx="27.2023" cy="35.2177" r="0.5" fill="#F7E5BF"/>
<circle cx="28.5381" cy="35.2177" r="0.5" fill="#F7E5BF"/>
<circle cx="36.5534" cy="35.2177" r="0.5" fill="#4EAB59"/>
<circle cx="37.8893" cy="35.2177" r="0.5" fill="#4EAB59"/>
<circle cx="39.2252" cy="35.2177" r="0.5" fill="#4EAB59"/>
<circle cx="40.561" cy="35.2177" r="0.5" fill="#4EAB59"/>
<circle cx="41.8969" cy="35.2177" r="0.5" fill="#4EAB59"/>
<circle cx="8.5" cy="36.5535" r="0.5" fill="#F3683C"/>
<circle cx="9.83588" cy="36.5535" r="0.5" fill="#F3683C"/>
<circle cx="11.1718" cy="36.5535" r="0.5" fill="#F3683C"/>
<circle cx="12.5076" cy="36.5535" r="0.5" fill="#F3683C"/>
<circle cx="13.8435" cy="36.5535" r="0.5" fill="#F3683C"/>
<circle cx="15.1794" cy="36.5535" r="0.5" fill="#F3683C"/>
<circle cx="16.5153" cy="36.5535" r="0.5" fill="#F3683C"/>
<circle cx="21.8588" cy="36.5535" r="0.5" fill="#F7E5BF"/>
<circle cx="23.1946" cy="36.5535" r="0.5" fill="#F7E5BF"/>
<circle cx="24.5305" cy="36.5535" r="0.5" fill="#F7E5BF"/>
<circle cx="25.8664" cy="36.5535" r="0.5" fill="#F7E5BF"/>
<circle cx="27.2023" cy="36.5535" r="0.5" fill="#F7E5BF"/>
<circle cx="28.5381" cy="36.5535" r="0.5" fill="#F7E5BF"/>
<circle cx="29.874" cy="36.5535" r="0.5" fill="#F7E5BF"/>
<circle cx="35.2175" cy="36.5535" r="0.5" fill="#4EAB59"/>
<circle cx="36.5534" cy="36.5535" r="0.5" fill="#4EAB59"/>
<circle cx="37.8893" cy="36.5535" r="0.5" fill="#4EAB59"/>
<circle cx="39.2252" cy="36.5535" r="0.5" fill="#4EAB59"/>
<circle cx="40.561" cy="36.5535" r="0.5" fill="#4EAB59"/>
<circle cx="41.8969" cy="36.5535" r="0.5" fill="#4EAB59"/>
<circle cx="43.2328" cy="36.5535" r="0.5" fill="#4EAB59"/>
<circle cx="8.5" cy="37.8894" r="0.5" fill="#F3683C"/>
<circle cx="9.83588" cy="37.8894" r="0.5" fill="#F3683C"/>
<circle cx="11.1718" cy="37.8894" r="0.5" fill="#F3683C"/>
<circle cx="12.5076" cy="37.8894" r="0.5" fill="#F3683C"/>
<circle cx="13.8435" cy="37.8894" r="0.5" fill="#F3683C"/>
<circle cx="15.1794" cy="37.8894" r="0.5" fill="#F3683C"/>
<circle cx="16.5153" cy="37.8894" r="0.5" fill="#F3683C"/>
<circle cx="21.8588" cy="37.8894" r="0.5" fill="#F7E5BF"/>
<circle cx="23.1946" cy="37.8894" r="0.5" fill="#F7E5BF"/>
<circle cx="24.5305" cy="37.8894" r="0.5" fill="#F7E5BF"/>
<circle cx="25.8664" cy="37.8894" r="0.5" fill="#F7E5BF"/>
<circle cx="27.2023" cy="37.8894" r="0.5" fill="#F7E5BF"/>
<circle cx="28.5381" cy="37.8894" r="0.5" fill="#F7E5BF"/>
<circle cx="29.874" cy="37.8894" r="0.5" fill="#F7E5BF"/>
<circle cx="35.2175" cy="37.8894" r="0.5" fill="#4EAB59"/>
<circle cx="36.5534" cy="37.8894" r="0.5" fill="#4EAB59"/>
<circle cx="37.8893" cy="37.8894" r="0.5" fill="#4EAB59"/>
<circle cx="39.2252" cy="37.8894" r="0.5" fill="#4EAB59"/>
<circle cx="40.561" cy="37.8894" r="0.5" fill="#4EAB59"/>
<circle cx="41.8969" cy="37.8894" r="0.5" fill="#4EAB59"/>
<circle cx="43.2328" cy="37.8894" r="0.5" fill="#4EAB59"/>
<circle cx="8.5" cy="39.2252" r="0.5" fill="#F3683C"/>
<circle cx="9.83588" cy="39.2252" r="0.5" fill="#F3683C"/>
<circle cx="11.1718" cy="39.2252" r="0.5" fill="#F3683C"/>
<circle cx="12.5076" cy="39.2252" r="0.5" fill="#F3683C"/>
<circle cx="13.8435" cy="39.2252" r="0.5" fill="#F3683C"/>
<circle cx="15.1794" cy="39.2252" r="0.5" fill="#F3683C"/>
<circle cx="16.5153" cy="39.2252" r="0.5" fill="#F3683C"/>
<circle cx="21.8588" cy="39.2252" r="0.5" fill="#F7E5BF"/>
<circle cx="23.1946" cy="39.2252" r="0.5" fill="#F7E5BF"/>
<circle cx="24.5305" cy="39.2252" r="0.5" fill="#F7E5BF"/>
<circle cx="25.8664" cy="39.2252" r="0.5" fill="#F7E5BF"/>
<circle cx="27.2023" cy="39.2252" r="0.5" fill="#F7E5BF"/>
<circle cx="28.5381" cy="39.2252" r="0.5" fill="#F7E5BF"/>
<circle cx="29.874" cy="39.2252" r="0.5" fill="#F7E5BF"/>
<circle cx="35.2175" cy="39.2252" r="0.5" fill="#4EAB59"/>
<circle cx="36.5534" cy="39.2252" r="0.5" fill="#4EAB59"/>
<circle cx="37.8893" cy="39.2252" r="0.5" fill="#4EAB59"/>
<circle cx="39.2252" cy="39.2252" r="0.5" fill="#4EAB59"/>
<circle cx="40.561" cy="39.2252" r="0.5" fill="#4EAB59"/>
<circle cx="41.8969" cy="39.2252" r="0.5" fill="#4EAB59"/>
<circle cx="43.2328" cy="39.2252" r="0.5" fill="#4EAB59"/>
<circle cx="8.5" cy="40.5612" r="0.5" fill="#F3683C"/>
<circle cx="9.83588" cy="40.5612" r="0.5" fill="#F3683C"/>
<circle cx="11.1718" cy="40.5612" r="0.5" fill="#F3683C"/>
<circle cx="12.5076" cy="40.5612" r="0.5" fill="#F3683C"/>
<circle cx="13.8435" cy="40.5612" r="0.5" fill="#F3683C"/>
<circle cx="15.1794" cy="40.5612" r="0.5" fill="#F3683C"/>
<circle cx="16.5153" cy="40.5612" r="0.5" fill="#F3683C"/>
<circle cx="21.8588" cy="40.5612" r="0.5" fill="#F7E5BF"/>
<circle cx="23.1946" cy="40.5612" r="0.5" fill="#F7E5BF"/>
<circle cx="24.5305" cy="40.5612" r="0.5" fill="#F7E5BF"/>
<circle cx="25.8664" cy="40.5612" r="0.5" fill="#F7E5BF"/>
<circle cx="27.2023" cy="40.5612" r="0.5" fill="#F7E5BF"/>
<circle cx="28.5381" cy="40.5612" r="0.5" fill="#F7E5BF"/>
<circle cx="29.874" cy="40.5612" r="0.5" fill="#F7E5BF"/>
<circle cx="35.2175" cy="40.5612" r="0.5" fill="#4EAB59"/>
<circle cx="36.5534" cy="40.5612" r="0.5" fill="#4EAB59"/>
<circle cx="37.8893" cy="40.5612" r="0.5" fill="#4EAB59"/>
<circle cx="39.2252" cy="40.5612" r="0.5" fill="#4EAB59"/>
<circle cx="40.561" cy="40.5612" r="0.5" fill="#4EAB59"/>
<circle cx="41.8969" cy="40.5612" r="0.5" fill="#4EAB59"/>
<circle cx="43.2328" cy="40.5612" r="0.5" fill="#4EAB59"/>
<circle cx="8.5" cy="41.897" r="0.5" fill="#F3683C"/>
<circle cx="9.83588" cy="41.897" r="0.5" fill="#F3683C"/>
<circle cx="11.1718" cy="41.897" r="0.5" fill="#F3683C"/>
<circle cx="12.5076" cy="41.897" r="0.5" fill="#F3683C"/>
<circle cx="13.8435" cy="41.897" r="0.5" fill="#F3683C"/>
<circle cx="15.1794" cy="41.897" r="0.5" fill="#F3683C"/>
<circle cx="16.5153" cy="41.897" r="0.5" fill="#F3683C"/>
<circle cx="21.8588" cy="41.897" r="0.5" fill="#F7E5BF"/>
<circle cx="23.1946" cy="41.897" r="0.5" fill="#F7E5BF"/>
<circle cx="24.5305" cy="41.897" r="0.5" fill="#F7E5BF"/>
<circle cx="25.8664" cy="41.897" r="0.5" fill="#F7E5BF"/>
<circle cx="27.2023" cy="41.897" r="0.5" fill="#F7E5BF"/>
<circle cx="28.5381" cy="41.897" r="0.5" fill="#F7E5BF"/>
<circle cx="29.874" cy="41.897" r="0.5" fill="#F7E5BF"/>
<circle cx="35.2175" cy="41.897" r="0.5" fill="#4EAB59"/>
<circle cx="36.5534" cy="41.897" r="0.5" fill="#4EAB59"/>
<circle cx="37.8893" cy="41.897" r="0.5" fill="#4EAB59"/>
<circle cx="39.2252" cy="41.897" r="0.5" fill="#4EAB59"/>
<circle cx="40.561" cy="41.897" r="0.5" fill="#4EAB59"/>
<circle cx="41.8969" cy="41.897" r="0.5" fill="#4EAB59"/>
<circle cx="43.2328" cy="41.897" r="0.5" fill="#4EAB59"/>
<circle cx="9.83588" cy="43.2329" r="0.5" fill="#F3683C"/>
<circle cx="11.1718" cy="43.2329" r="0.5" fill="#F3683C"/>
<circle cx="12.5076" cy="43.2329" r="0.5" fill="#F3683C"/>
<circle cx="13.8435" cy="43.2329" r="0.5" fill="#F3683C"/>
<circle cx="15.1794" cy="43.2329" r="0.5" fill="#F3683C"/>
<circle cx="23.1946" cy="43.2329" r="0.5" fill="#F7E5BF"/>
<circle cx="24.5305" cy="43.2329" r="0.5" fill="#F7E5BF"/>
<circle cx="25.8664" cy="43.2329" r="0.5" fill="#F7E5BF"/>
<circle cx="27.2023" cy="43.2329" r="0.5" fill="#F7E5BF"/>
<circle cx="28.5381" cy="43.2329" r="0.5" fill="#F7E5BF"/>
<circle cx="36.5534" cy="43.2329" r="0.5" fill="#4EAB59"/>
<circle cx="37.8893" cy="43.2329" r="0.5" fill="#4EAB59"/>
<circle cx="39.2252" cy="43.2329" r="0.5" fill="#4EAB59"/>
<circle cx="40.561" cy="43.2329" r="0.5" fill="#4EAB59"/>
<circle cx="41.8969" cy="43.2329" r="0.5" fill="#4EAB59"/>
</svg>
