<svg preserveAspectRatio="none" width="100%" height="100%" overflow="visible" style="display: block;" viewBox="0 0 27.1529 34.3031" fill="none" xmlns="http://www.w3.org/2000/svg">
<g id="bird">
<circle id="Ellipse" cx="8.56617" cy="33.5333" r="0.75" transform="rotate(-178.479 8.56617 33.5333)" fill="var(--fill-0, #BBBBBB)"/>
<circle id="Ellipse_2" cx="6.39564" cy="33.4759" r="0.75" transform="rotate(-178.479 6.39564 33.4759)" fill="var(--fill-0, #BBBBBB)"/>
<circle id="Ellipse_3" cx="4.22575" cy="33.418" r="0.75" transform="rotate(-178.479 4.22575 33.418)" fill="var(--fill-0, #BBBBBB)"/>
<circle id="Ellipse_4" cx="12.9642" cy="31.478" r="0.75" transform="rotate(-178.479 12.9642 31.478)" fill="var(--fill-0, #BBBBBB)"/>
<circle id="Ellipse_5" cx="10.794" cy="31.421" r="0.75" transform="rotate(-178.479 10.794 31.421)" fill="var(--fill-0, #BBBBBB)"/>
<circle id="Ellipse_6" cx="8.62369" cy="31.3632" r="0.75" transform="rotate(-178.479 8.62369 31.3632)" fill="var(--fill-0, #BBBBBB)"/>
<circle id="Ellipse_7" cx="6.45331" cy="31.306" r="0.75" transform="rotate(-178.479 6.45331 31.306)" fill="var(--fill-0, #BBBBBB)"/>
<circle id="Ellipse_8" cx="4.28317" cy="31.2479" r="0.75" transform="rotate(-178.479 4.28317 31.2479)" fill="var(--fill-0, #BBBBBB)"/>
<circle id="Ellipse_9" cx="15.1919" cy="29.3658" r="0.75" transform="rotate(-178.479 15.1919 29.3658)" fill="var(--fill-0, #BBBBBB)"/>
<circle id="Ellipse_10" cx="13.0214" cy="29.3084" r="0.75" transform="rotate(-178.479 13.0214 29.3084)" fill="var(--fill-0, #BBBBBB)"/>
<circle id="Ellipse_11" cx="10.8517" cy="29.2505" r="0.75" transform="rotate(-178.479 10.8517 29.2505)" fill="var(--fill-0, #BBBBBB)"/>
<circle id="Ellipse_12" cx="8.68122" cy="29.1935" r="0.75" transform="rotate(-178.479 8.68122 29.1935)" fill="var(--fill-0, #BBBBBB)"/>
<circle id="Ellipse_13" cx="6.5109" cy="29.1353" r="0.75" transform="rotate(-178.479 6.5109 29.1353)" fill="var(--fill-0, #BBBBBB)"/>
<circle id="Ellipse_14" cx="19.59" cy="27.3109" r="0.75" transform="rotate(-178.479 19.59 27.3109)" fill="var(--fill-0, #BBBBBB)"/>
<circle id="Ellipse_15" cx="17.4196" cy="27.2535" r="0.75" transform="rotate(-178.479 17.4196 27.2535)" fill="var(--fill-0, #BBBBBB)"/>
<circle id="Ellipse_16" cx="15.2498" cy="27.1957" r="0.75" transform="rotate(-178.479 15.2498 27.1957)" fill="var(--fill-0, #BBBBBB)"/>
<circle id="Ellipse_17" cx="13.0788" cy="27.1387" r="0.75" transform="rotate(-178.479 13.0788 27.1387)" fill="var(--fill-0, #BBBBBB)"/>
<circle id="Ellipse_18" cx="10.9089" cy="27.0808" r="0.75" transform="rotate(-178.479 10.9089 27.0808)" fill="var(--fill-0, #BBBBBB)"/>
<circle id="Ellipse_19" cx="8.73859" cy="27.0228" r="0.75" transform="rotate(-178.479 8.73859 27.0228)" fill="var(--fill-0, #BBBBBB)"/>
<circle id="Ellipse_20" cx="19.6474" cy="25.1408" r="0.75" transform="rotate(-178.479 19.6474 25.1408)" fill="var(--fill-0, #BBBBBB)"/>
<circle id="Ellipse_21" cx="17.477" cy="25.0838" r="0.75" transform="rotate(-178.479 17.477 25.0838)" fill="var(--fill-0, #BBBBBB)"/>
<circle id="Ellipse_22" cx="15.3068" cy="25.026" r="0.75" transform="rotate(-178.479 15.3068 25.026)" fill="var(--fill-0, #BBBBBB)"/>
<circle id="Ellipse_23" cx="13.1366" cy="24.9677" r="0.75" transform="rotate(-178.479 13.1366 24.9677)" fill="var(--fill-0, #BBBBBB)"/>
<circle id="Ellipse_24" cx="10.967" cy="24.9103" r="0.75" transform="rotate(-178.479 10.967 24.9103)" fill="var(--fill-0, #BBBBBB)"/>
<circle id="Ellipse_25" cx="19.705" cy="22.9707" r="0.75" transform="rotate(-178.479 19.705 22.9707)" fill="var(--fill-0, #BBBBBB)"/>
<circle id="Ellipse_26" cx="17.5351" cy="22.9125" r="0.75" transform="rotate(-178.479 17.5351 22.9125)" fill="var(--fill-0, #BBBBBB)"/>
<circle id="Ellipse_27" cx="15.3648" cy="22.8555" r="0.75" transform="rotate(-178.479 15.3648 22.8555)" fill="var(--fill-0, #BBBBBB)"/>
<circle id="Ellipse_28" cx="13.1943" cy="22.7981" r="0.75" transform="rotate(-178.479 13.1943 22.7981)" fill="var(--fill-0, #BBBBBB)"/>
<circle id="Ellipse_29" cx="11.0242" cy="22.7406" r="0.75" transform="rotate(-178.479 11.0242 22.7406)" fill="var(--fill-0, #BBBBBB)"/>
<circle id="Ellipse_30" cx="19.7627" cy="20.8011" r="0.75" transform="rotate(-178.479 19.7627 20.8011)" fill="var(--fill-0, #BBBBBB)"/>
<circle id="Ellipse_31" cx="17.5928" cy="20.7428" r="0.75" transform="rotate(-178.479 17.5928 20.7428)" fill="var(--fill-0, #BBBBBB)"/>
<circle id="Ellipse_32" cx="15.4222" cy="20.6854" r="0.75" transform="rotate(-178.479 15.4222 20.6854)" fill="var(--fill-0, #BBBBBB)"/>
<circle id="Ellipse_33" cx="13.2524" cy="20.628" r="0.75" transform="rotate(-178.479 13.2524 20.628)" fill="var(--fill-0, #BBBBBB)"/>
<circle id="Ellipse_34" cx="11.0815" cy="20.5705" r="0.75" transform="rotate(-178.479 11.0815 20.5705)" fill="var(--fill-0, #BBBBBB)"/>
<circle id="Ellipse_35" cx="4.57154" cy="20.3974" r="0.75" transform="rotate(-178.479 4.57154 20.3974)" fill="var(--fill-0, #BBBBBB)"/>
<circle id="Ellipse_36" cx="2.40143" cy="20.3392" r="0.75" transform="rotate(-178.479 2.40143 20.3392)" fill="var(--fill-0, #BBBBBB)"/>
<circle id="Ellipse_37" cx="26.3308" cy="18.8032" r="0.75" transform="rotate(-178.479 26.3308 18.8032)" fill="var(--fill-0, #BBBBBB)"/>
<circle id="Ellipse_38" cx="24.1609" cy="18.7454" r="0.75" transform="rotate(-178.479 24.1609 18.7454)" fill="var(--fill-0, #BBBBBB)"/>
<circle id="Ellipse_39" cx="21.9904" cy="18.6875" r="0.75" transform="rotate(-178.479 21.9904 18.6875)" fill="var(--fill-0, #BBBBBB)"/>
<circle id="Ellipse_40" cx="19.8203" cy="18.6305" r="0.75" transform="rotate(-178.479 19.8203 18.6305)" fill="var(--fill-0, #BBBBBB)"/>
<circle id="Ellipse_41" cx="17.65" cy="18.5731" r="0.75" transform="rotate(-178.479 17.65 18.5731)" fill="var(--fill-0, #BBBBBB)"/>
<circle id="Ellipse_42" cx="15.4797" cy="18.5153" r="0.75" transform="rotate(-178.479 15.4797 18.5153)" fill="var(--fill-0, #BBBBBB)"/>
<circle id="Ellipse_43" cx="13.3098" cy="18.4574" r="0.75" transform="rotate(-178.479 13.3098 18.4574)" fill="var(--fill-0, #BBBBBB)"/>
<circle id="Ellipse_44" cx="11.1397" cy="18.3996" r="0.75" transform="rotate(-178.479 11.1397 18.3996)" fill="var(--fill-0, #BBBBBB)"/>
<circle id="Ellipse_45" cx="8.96947" cy="18.3422" r="0.75" transform="rotate(-178.479 8.96947 18.3422)" fill="var(--fill-0, #BBBBBB)"/>
<circle id="Ellipse_46" cx="6.79927" cy="18.2848" r="0.75" transform="rotate(-178.479 6.79927 18.2848)" fill="var(--fill-0, #BBBBBB)"/>
<circle id="Ellipse_47" cx="4.62895" cy="18.2265" r="0.75" transform="rotate(-178.479 4.62895 18.2265)" fill="var(--fill-0, #BBBBBB)"/>
<circle id="Ellipse_48" cx="2.45854" cy="18.1699" r="0.75" transform="rotate(-178.479 2.45854 18.1699)" fill="var(--fill-0, #BBBBBB)"/>
<circle id="Ellipse_49" cx="26.3886" cy="16.6327" r="0.75" transform="rotate(-178.479 26.3886 16.6327)" fill="var(--fill-0, #BBBBBB)"/>
<circle id="Ellipse_50" cx="24.2183" cy="16.5753" r="0.75" transform="rotate(-178.479 24.2183 16.5753)" fill="var(--fill-0, #BBBBBB)"/>
<circle id="Ellipse_51" cx="22.0479" cy="16.5179" r="0.75" transform="rotate(-178.479 22.0479 16.5179)" fill="var(--fill-0, #BBBBBB)"/>
<circle id="Ellipse_52" cx="19.8777" cy="16.4604" r="0.75" transform="rotate(-178.479 19.8777 16.4604)" fill="var(--fill-0, #BBBBBB)"/>
<circle id="Ellipse_53" cx="17.7078" cy="16.403" r="0.75" transform="rotate(-178.479 17.7078 16.403)" fill="var(--fill-0, #BBBBBB)"/>
<circle id="Ellipse_54" cx="15.5373" cy="16.3447" r="0.75" transform="rotate(-178.479 15.5373 16.3447)" fill="var(--fill-0, #BBBBBB)"/>
<circle id="Ellipse_55" cx="13.3674" cy="16.2869" r="0.75" transform="rotate(-178.479 13.3674 16.2869)" fill="var(--fill-0, #BBBBBB)"/>
<circle id="Ellipse_56" cx="11.1969" cy="16.2303" r="0.75" transform="rotate(-178.479 11.1969 16.2303)" fill="var(--fill-0, #BBBBBB)"/>
<circle id="Ellipse_57" cx="9.02678" cy="16.1721" r="0.75" transform="rotate(-178.479 9.02678 16.1721)" fill="var(--fill-0, #BBBBBB)"/>
<circle id="Ellipse_58" cx="6.85647" cy="16.1151" r="0.75" transform="rotate(-178.479 6.85647 16.1151)" fill="var(--fill-0, #BBBBBB)"/>
<circle id="Ellipse_59" cx="4.68669" cy="16.0568" r="0.75" transform="rotate(-178.479 4.68669 16.0568)" fill="var(--fill-0, #BBBBBB)"/>
<circle id="Ellipse_60" cx="2.51638" cy="15.9994" r="0.75" transform="rotate(-178.479 2.51638 15.9994)" fill="var(--fill-0, #BBBBBB)"/>
<circle id="Ellipse_61" cx="24.276" cy="14.4052" r="0.75" transform="rotate(-178.479 24.276 14.4052)" fill="var(--fill-0, #BBBBBB)"/>
<circle id="Ellipse_62" cx="22.106" cy="14.3473" r="0.75" transform="rotate(-178.479 22.106 14.3473)" fill="var(--fill-0, #BBBBBB)"/>
<circle id="Ellipse_63" cx="19.9359" cy="14.2899" r="0.75" transform="rotate(-178.479 19.9359 14.2899)" fill="var(--fill-0, #BBBBBB)"/>
<circle id="Ellipse_64" cx="17.765" cy="14.2325" r="0.75" transform="rotate(-178.479 17.765 14.2325)" fill="var(--fill-0, #BBBBBB)"/>
<circle id="Ellipse_65" cx="15.5951" cy="14.1747" r="0.75" transform="rotate(-178.479 15.5951 14.1747)" fill="var(--fill-0, #BBBBBB)"/>
<circle id="Ellipse_66" cx="13.4248" cy="14.1172" r="0.75" transform="rotate(-178.479 13.4248 14.1172)" fill="var(--fill-0, #BBBBBB)"/>
<circle id="Ellipse_67" cx="11.2545" cy="14.0598" r="0.75" transform="rotate(-178.479 11.2545 14.0598)" fill="var(--fill-0, #BBBBBB)"/>
<circle id="Ellipse_68" cx="2.5739" cy="13.8284" r="0.75" transform="rotate(-178.479 2.5739 13.8284)" fill="var(--fill-0, #BBBBBB)"/>
<circle id="Ellipse_69" cx="19.9932" cy="12.1198" r="0.75" transform="rotate(-178.479 19.9932 12.1198)" fill="var(--fill-0, #BBBBBB)"/>
<circle id="Ellipse_70" cx="17.8231" cy="12.062" r="0.75" transform="rotate(-178.479 17.8231 12.062)" fill="var(--fill-0, #BBBBBB)"/>
<circle id="Ellipse_71" cx="15.6526" cy="12.005" r="0.75" transform="rotate(-178.479 15.6526 12.005)" fill="var(--fill-0, #BBBBBB)"/>
<circle id="Ellipse_72" cx="13.4822" cy="11.9471" r="0.75" transform="rotate(-178.479 13.4822 11.9471)" fill="var(--fill-0, #BBBBBB)"/>
<circle id="Ellipse_73" cx="11.3125" cy="11.8893" r="0.75" transform="rotate(-178.479 11.3125 11.8893)" fill="var(--fill-0, #BBBBBB)"/>
<circle id="Ellipse_74" cx="20.0508" cy="9.95013" r="0.75" transform="rotate(-178.479 20.0508 9.95013)" fill="var(--fill-0, #BBBBBB)"/>
<circle id="Ellipse_75" cx="17.8807" cy="9.89187" r="0.75" transform="rotate(-178.479 17.8807 9.89187)" fill="var(--fill-0, #BBBBBB)"/>
<circle id="Ellipse_76" cx="15.7106" cy="9.83403" r="0.75" transform="rotate(-178.479 15.7106 9.83403)" fill="var(--fill-0, #BBBBBB)"/>
<circle id="Ellipse_77" cx="13.5401" cy="9.77703" r="0.75" transform="rotate(-178.479 13.5401 9.77703)" fill="var(--fill-0, #BBBBBB)"/>
<circle id="Ellipse_78" cx="11.37" cy="9.71919" r="0.75" transform="rotate(-178.479 11.37 9.71919)" fill="var(--fill-0, #BBBBBB)"/>
<circle id="Ellipse_79" cx="17.9386" cy="7.72177" r="0.75" transform="rotate(-178.479 17.9386 7.72177)" fill="var(--fill-0, #BBBBBB)"/>
<circle id="Ellipse_80" cx="15.7681" cy="7.66435" r="0.75" transform="rotate(-178.479 15.7681 7.66435)" fill="var(--fill-0, #BBBBBB)"/>
<circle id="Ellipse_81" cx="13.5981" cy="7.60566" r="0.75" transform="rotate(-178.479 13.5981 7.60566)" fill="var(--fill-0, #BBBBBB)"/>
<circle id="Ellipse_82" cx="11.4274" cy="7.54951" r="0.75" transform="rotate(-178.479 11.4274 7.54951)" fill="var(--fill-0, #BBBBBB)"/>
<circle id="Ellipse_83" cx="9.25731" cy="7.49125" r="0.75" transform="rotate(-178.479 9.25731 7.49125)" fill="var(--fill-0, #BBBBBB)"/>
<circle id="Ellipse_84" cx="17.996" cy="5.55167" r="0.75" transform="rotate(-178.479 17.996 5.55167)" fill="var(--fill-0, #BBBBBB)"/>
<circle id="Ellipse_85" cx="15.8254" cy="5.49425" r="0.75" transform="rotate(-178.479 15.8254 5.49425)" fill="var(--fill-0, #BBBBBB)"/>
<circle id="Ellipse_86" cx="13.6551" cy="5.43683" r="0.75" transform="rotate(-178.479 13.6551 5.43683)" fill="var(--fill-0, #BBBBBB)"/>
<circle id="Ellipse_87" cx="11.4852" cy="5.37857" r="0.75" transform="rotate(-178.479 11.4852 5.37857)" fill="var(--fill-0, #BBBBBB)"/>
<circle id="Ellipse_88" cx="9.31536" cy="5.32115" r="0.75" transform="rotate(-178.479 9.31536 5.32115)" fill="var(--fill-0, #BBBBBB)"/>
<circle id="Ellipse_89" cx="7.14505" cy="5.26289" r="0.75" transform="rotate(-178.479 7.14505 5.26289)" fill="var(--fill-0, #BBBBBB)"/>
<circle id="Ellipse_90" cx="13.7134" cy="3.26589" r="0.75" transform="rotate(-178.479 13.7134 3.26589)" fill="var(--fill-0, #BBBBBB)"/>
<circle id="Ellipse_91" cx="11.5429" cy="3.20889" r="0.75" transform="rotate(-178.479 11.5429 3.20889)" fill="var(--fill-0, #BBBBBB)"/>
<circle id="Ellipse_92" cx="9.37278" cy="3.15063" r="0.75" transform="rotate(-178.479 9.37278 3.15063)" fill="var(--fill-0, #BBBBBB)"/>
<circle id="Ellipse_93" cx="7.20247" cy="3.09363" r="0.75" transform="rotate(-178.479 7.20247 3.09363)" fill="var(--fill-0, #BBBBBB)"/>
<circle id="Ellipse_94" cx="5.03247" cy="3.03537" r="0.75" transform="rotate(-178.479 5.03247 3.03537)" fill="var(--fill-0, #BBBBBB)"/>
<circle id="Ellipse_95" cx="9.43019" cy="0.980526" r="0.75" transform="rotate(-178.479 9.43019 0.980526)" fill="var(--fill-0, #BBBBBB)"/>
<circle id="Ellipse_96" cx="7.25988" cy="0.923529" r="0.75" transform="rotate(-178.479 7.25988 0.923529)" fill="var(--fill-0, #BBBBBB)"/>
<circle id="Ellipse_97" cx="5.08999" cy="0.865265" r="0.75" transform="rotate(-178.479 5.08999 0.865265)" fill="var(--fill-0, #BBBBBB)"/>
<circle id="Ellipse_98" cx="2.92011" cy="0.807424" r="0.75" transform="rotate(-178.479 2.92011 0.807424)" fill="var(--fill-0, #BBBBBB)"/>
<circle id="Ellipse_99" cx="0.750005" cy="0.750005" r="0.75" transform="rotate(-178.479 0.750005 0.750005)" fill="var(--fill-0, #BBBBBB)"/>
</g>
</svg>
