<svg width="52" height="52" viewBox="0 0 52 52" fill="none" xmlns="http://www.w3.org/2000/svg">
<circle cx="14.625" cy="10.625" r="0.625" fill="#0778D5"/>
<circle cx="16.625" cy="10.625" r="0.625" fill="#0778D5"/>
<circle cx="18.625" cy="10.625" r="0.625" fill="#0778D5"/>
<circle cx="12.625" cy="12.625" r="0.625" fill="#0778D5"/>
<circle cx="14.625" cy="12.625" r="0.625" fill="#0778D5"/>
<circle cx="16.625" cy="12.625" r="0.625" fill="#0778D5"/>
<circle cx="18.625" cy="12.625" r="0.625" fill="#0778D5"/>
<circle cx="20.625" cy="12.625" r="0.625" fill="#0778D5"/>
<circle cx="12.625" cy="14.625" r="0.625" fill="#0778D5"/>
<circle cx="14.625" cy="14.625" r="0.625" fill="#0778D5"/>
<circle cx="16.625" cy="14.625" r="0.625" fill="#0778D5"/>
<circle cx="18.625" cy="14.625" r="0.625" fill="#0778D5"/>
<circle cx="20.625" cy="14.625" r="0.625" fill="#0778D5"/>
<circle cx="34.625" cy="14.625" r="0.625" fill="#0778D5"/>
<circle cx="36.625" cy="14.625" r="0.625" fill="#0778D5"/>
<circle cx="10.625" cy="16.625" r="0.625" fill="#0778D5"/>
<circle cx="12.625" cy="16.625" r="0.625" fill="#0778D5"/>
<circle cx="14.625" cy="16.625" r="0.625" fill="#0778D5"/>
<circle cx="16.625" cy="16.625" r="0.625" fill="#0778D5"/>
<circle cx="18.625" cy="16.625" r="0.625" fill="#0778D5"/>
<circle cx="20.625" cy="16.625" r="0.625" fill="#0778D5"/>
<circle cx="22.625" cy="16.625" r="0.625" fill="#0778D5"/>
<circle cx="30.625" cy="16.625" r="0.625" fill="#0778D5"/>
<circle cx="32.625" cy="16.625" r="0.625" fill="#0778D5"/>
<circle cx="34.625" cy="16.625" r="0.625" fill="#0778D5"/>
<circle cx="36.625" cy="16.625" r="0.625" fill="#0778D5"/>
<circle cx="38.625" cy="16.625" r="0.625" fill="#0778D5"/>
<circle cx="10.625" cy="18.625" r="0.625" fill="#0778D5"/>
<circle cx="12.625" cy="18.625" r="0.625" fill="#0778D5"/>
<circle cx="14.625" cy="18.625" r="0.625" fill="#0778D5"/>
<circle cx="16.625" cy="18.625" r="0.625" fill="#0778D5"/>
<circle cx="18.625" cy="18.625" r="0.625" fill="#0778D5"/>
<circle cx="20.625" cy="18.625" r="0.625" fill="#0778D5"/>
<circle cx="22.625" cy="18.625" r="0.625" fill="#0778D5"/>
<circle cx="28.625" cy="18.625" r="0.625" fill="#0778D5"/>
<circle cx="30.625" cy="18.625" r="0.625" fill="#0778D5"/>
<circle cx="32.625" cy="18.625" r="0.625" fill="#0778D5"/>
<circle cx="34.625" cy="18.625" r="0.625" fill="#0778D5"/>
<circle cx="36.625" cy="18.625" r="0.625" fill="#0778D5"/>
<circle cx="38.625" cy="18.625" r="0.625" fill="#0778D5"/>
<circle cx="40.625" cy="18.625" r="0.625" fill="#0778D5"/>
<circle cx="10.625" cy="20.625" r="0.625" fill="#0778D5"/>
<circle cx="12.625" cy="20.625" r="0.625" fill="#0778D5"/>
<circle cx="14.625" cy="20.625" r="0.625" fill="#0778D5"/>
<circle cx="16.625" cy="20.625" r="0.625" fill="#0778D5"/>
<circle cx="18.625" cy="20.625" r="0.625" fill="#0778D5"/>
<circle cx="20.625" cy="20.625" r="0.625" fill="#0778D5"/>
<circle cx="22.625" cy="20.625" r="0.625" fill="#0778D5"/>
<circle cx="24.625" cy="20.625" r="0.625" fill="#0778D5"/>
<circle cx="26.625" cy="20.625" r="0.625" fill="#0778D5"/>
<circle cx="28.625" cy="20.625" r="0.625" fill="#0778D5"/>
<circle cx="30.625" cy="20.625" r="0.625" fill="#0778D5"/>
<circle cx="32.625" cy="20.625" r="0.625" fill="#0778D5"/>
<circle cx="34.625" cy="20.625" r="0.625" fill="#0778D5"/>
<circle cx="36.625" cy="20.625" r="0.625" fill="#0778D5"/>
<circle cx="38.625" cy="20.625" r="0.625" fill="#0778D5"/>
<circle cx="40.625" cy="20.625" r="0.625" fill="#0778D5"/>
<circle cx="10.625" cy="22.625" r="0.625" fill="#0778D5"/>
<circle cx="12.625" cy="22.625" r="0.625" fill="#0778D5"/>
<circle cx="14.625" cy="22.625" r="0.625" fill="#0778D5"/>
<circle cx="16.625" cy="22.625" r="0.625" fill="#0778D5"/>
<circle cx="18.625" cy="22.625" r="0.625" fill="#0778D5"/>
<circle cx="20.625" cy="22.625" r="0.625" fill="#0778D5"/>
<circle cx="22.625" cy="22.625" r="0.625" fill="#0778D5"/>
<circle cx="24.625" cy="22.625" r="0.625" fill="#0778D5"/>
<circle cx="26.625" cy="22.625" r="0.625" fill="#0778D5"/>
<circle cx="28.625" cy="22.625" r="0.625" fill="#0778D5"/>
<circle cx="30.625" cy="22.625" r="0.625" fill="#0778D5"/>
<circle cx="32.625" cy="22.625" r="0.625" fill="#0778D5"/>
<circle cx="34.625" cy="22.625" r="0.625" fill="#0778D5"/>
<circle cx="36.625" cy="22.625" r="0.625" fill="#0778D5"/>
<circle cx="38.625" cy="22.625" r="0.625" fill="#0778D5"/>
<circle cx="40.625" cy="22.625" r="0.625" fill="#0778D5"/>
<circle cx="12.625" cy="24.625" r="0.625" fill="#0778D5"/>
<circle cx="14.625" cy="24.625" r="0.625" fill="#0778D5"/>
<circle cx="16.625" cy="24.625" r="0.625" fill="#0778D5"/>
<circle cx="18.625" cy="24.625" r="0.625" fill="#0778D5"/>
<circle cx="20.625" cy="24.625" r="0.625" fill="#0778D5"/>
<circle cx="22.625" cy="24.625" r="0.625" fill="#0778D5"/>
<circle cx="24.625" cy="24.625" r="0.625" fill="#0778D5"/>
<circle cx="26.625" cy="24.625" r="0.625" fill="#0778D5"/>
<circle cx="28.625" cy="24.625" r="0.625" fill="#0778D5"/>
<circle cx="30.625" cy="24.625" r="0.625" fill="#0778D5"/>
<circle cx="32.625" cy="24.625" r="0.625" fill="#0778D5"/>
<circle cx="34.625" cy="24.625" r="0.625" fill="#0778D5"/>
<circle cx="36.625" cy="24.625" r="0.625" fill="#0778D5"/>
<circle cx="38.625" cy="24.625" r="0.625" fill="#0778D5"/>
<circle cx="40.625" cy="24.625" r="0.625" fill="#0778D5"/>
<circle cx="12.625" cy="26.625" r="0.625" fill="#0778D5"/>
<circle cx="14.625" cy="26.625" r="0.625" fill="#0778D5"/>
<circle cx="16.625" cy="26.625" r="0.625" fill="#0778D5"/>
<circle cx="18.625" cy="26.625" r="0.625" fill="#0778D5"/>
<circle cx="20.625" cy="26.625" r="0.625" fill="#0778D5"/>
<circle cx="22.625" cy="26.625" r="0.625" fill="#0778D5"/>
<circle cx="24.625" cy="26.625" r="0.625" fill="#0778D5"/>
<circle cx="26.625" cy="26.625" r="0.625" fill="#0778D5"/>
<circle cx="28.625" cy="26.625" r="0.625" fill="#0778D5"/>
<circle cx="30.625" cy="26.625" r="0.625" fill="#0778D5"/>
<circle cx="32.625" cy="26.625" r="0.625" fill="#0778D5"/>
<circle cx="34.625" cy="26.625" r="0.625" fill="#0778D5"/>
<circle cx="36.625" cy="26.625" r="0.625" fill="#0778D5"/>
<circle cx="38.625" cy="26.625" r="0.625" fill="#0778D5"/>
<circle cx="12.625" cy="28.625" r="0.625" fill="#0778D5"/>
<circle cx="14.625" cy="28.625" r="0.625" fill="#0778D5"/>
<circle cx="16.625" cy="28.625" r="0.625" fill="#0778D5"/>
<circle cx="18.625" cy="28.625" r="0.625" fill="#0778D5"/>
<circle cx="20.625" cy="28.625" r="0.625" fill="#0778D5"/>
<circle cx="22.625" cy="28.625" r="0.625" fill="#0778D5"/>
<circle cx="24.625" cy="28.625" r="0.625" fill="#0778D5"/>
<circle cx="26.625" cy="28.625" r="0.625" fill="#0778D5"/>
<circle cx="28.625" cy="28.625" r="0.625" fill="#0778D5"/>
<circle cx="30.625" cy="28.625" r="0.625" fill="#0778D5"/>
<circle cx="32.625" cy="28.625" r="0.625" fill="#0778D5"/>
<circle cx="34.625" cy="28.625" r="0.625" fill="#0778D5"/>
<circle cx="36.625" cy="28.625" r="0.625" fill="#0778D5"/>
<circle cx="38.625" cy="28.625" r="0.625" fill="#0778D5"/>
<circle cx="14.625" cy="30.625" r="0.625" fill="#0778D5"/>
<circle cx="16.625" cy="30.625" r="0.625" fill="#0778D5"/>
<circle cx="18.625" cy="30.625" r="0.625" fill="#0778D5"/>
<circle cx="20.625" cy="30.625" r="0.625" fill="#0778D5"/>
<circle cx="22.625" cy="30.625" r="0.625" fill="#0778D5"/>
<circle cx="24.625" cy="30.625" r="0.625" fill="#0778D5"/>
<circle cx="26.625" cy="30.625" r="0.625" fill="#0778D5"/>
<circle cx="28.625" cy="30.625" r="0.625" fill="#0778D5"/>
<circle cx="30.625" cy="30.625" r="0.625" fill="#0778D5"/>
<circle cx="32.625" cy="30.625" r="0.625" fill="#0778D5"/>
<circle cx="34.625" cy="30.625" r="0.625" fill="#0778D5"/>
<circle cx="36.625" cy="30.625" r="0.625" fill="#0778D5"/>
<circle cx="14.625" cy="32.625" r="0.625" fill="#0778D5"/>
<circle cx="16.625" cy="32.625" r="0.625" fill="#0778D5"/>
<circle cx="18.625" cy="32.625" r="0.625" fill="#0778D5"/>
<circle cx="20.625" cy="32.625" r="0.625" fill="#0778D5"/>
<circle cx="22.625" cy="32.625" r="0.625" fill="#0778D5"/>
<circle cx="24.625" cy="32.625" r="0.625" fill="#0778D5"/>
<circle cx="26.625" cy="32.625" r="0.625" fill="#0778D5"/>
<circle cx="28.625" cy="32.625" r="0.625" fill="#0778D5"/>
<circle cx="30.625" cy="32.625" r="0.625" fill="#0778D5"/>
<circle cx="32.625" cy="32.625" r="0.625" fill="#0778D5"/>
<circle cx="34.625" cy="32.625" r="0.625" fill="#0778D5"/>
<circle cx="16.625" cy="34.625" r="0.625" fill="#0778D5"/>
<circle cx="18.625" cy="34.625" r="0.625" fill="#0778D5"/>
<circle cx="20.625" cy="34.625" r="0.625" fill="#0778D5"/>
<circle cx="22.625" cy="34.625" r="0.625" fill="#0778D5"/>
<circle cx="24.625" cy="34.625" r="0.625" fill="#0778D5"/>
<circle cx="26.625" cy="34.625" r="0.625" fill="#0778D5"/>
<circle cx="28.625" cy="34.625" r="0.625" fill="#0778D5"/>
<circle cx="30.625" cy="34.625" r="0.625" fill="#0778D5"/>
<circle cx="32.625" cy="34.625" r="0.625" fill="#0778D5"/>
<circle cx="16.625" cy="36.625" r="0.625" fill="#0778D5"/>
<circle cx="18.625" cy="36.625" r="0.625" fill="#0778D5"/>
<circle cx="20.625" cy="36.625" r="0.625" fill="#0778D5"/>
<circle cx="22.625" cy="36.625" r="0.625" fill="#0778D5"/>
<circle cx="24.625" cy="36.625" r="0.625" fill="#0778D5"/>
<circle cx="26.625" cy="36.625" r="0.625" fill="#0778D5"/>
<circle cx="28.625" cy="36.625" r="0.625" fill="#0778D5"/>
<circle cx="18.625" cy="38.625" r="0.625" fill="#0778D5"/>
<circle cx="20.625" cy="38.625" r="0.625" fill="#0778D5"/>
<circle cx="22.625" cy="38.625" r="0.625" fill="#0778D5"/>
<circle cx="24.625" cy="38.625" r="0.625" fill="#0778D5"/>
<circle cx="26.625" cy="38.625" r="0.625" fill="#0778D5"/>
<circle cx="20.625" cy="40.625" r="0.625" fill="#0778D5"/>
<circle cx="22.625" cy="40.625" r="0.625" fill="#0778D5"/>
</svg>
