<svg width="20" height="20" viewBox="0 0 20 20" fill="none" xmlns="http://www.w3.org/2000/svg">
<rect x="5" y="13" width="2" height="2" rx="1" fill="#252525"/>
<rect x="7" y="11" width="2" height="2" rx="1" fill="#252525"/>
<rect x="9" y="9" width="2" height="2" rx="1" fill="#252525"/>
<rect x="11" y="7" width="2" height="2" rx="1" fill="#252525"/>
<rect x="13" y="5" width="2" height="2" rx="1" fill="#252525"/>
<rect width="2" height="2" rx="1" transform="matrix(1 0 0 -1 5 7)" fill="#252525"/>
<rect width="2" height="2" rx="1" transform="matrix(1 0 0 -1 7 9)" fill="#252525"/>
<rect width="2" height="2" rx="1" transform="matrix(1 0 0 -1 11 13)" fill="#252525"/>
<rect width="2" height="2" rx="1" transform="matrix(1 0 0 -1 13 15)" fill="#252525"/>
</svg>
