<svg width="40" height="40" viewBox="0 0 40 40" fill="none" xmlns="http://www.w3.org/2000/svg">
<rect width="40" height="40" rx="12" fill="white"/>
<circle cx="28.085" cy="33.5532" r="0.5" transform="rotate(145.925 28.085 33.5532)" fill="#636363"/>
<circle cx="26.502" cy="34.624" r="0.5" transform="rotate(145.925 26.502 34.624)" fill="#636363"/>
<circle cx="24.9195" cy="35.6943" r="0.5" transform="rotate(145.925 24.9195 35.6943)" fill="#636363"/>
<circle cx="30.18" cy="29.8291" r="0.5" transform="rotate(145.925 30.18 29.8291)" fill="#636363"/>
<circle cx="28.5972" cy="30.8999" r="0.5" transform="rotate(145.925 28.5972 30.8999)" fill="#636363"/>
<circle cx="27.0142" cy="31.9702" r="0.5" transform="rotate(145.925 27.0142 31.9702)" fill="#636363"/>
<circle cx="25.4317" cy="33.0415" r="0.5" transform="rotate(145.925 25.4317 33.0415)" fill="#636363"/>
<circle cx="23.8487" cy="34.1118" r="0.5" transform="rotate(145.925 23.8487 34.1118)" fill="#636363"/>
<circle cx="30.6922" cy="27.1757" r="0.5" transform="rotate(145.925 30.6922 27.1757)" fill="#636363"/>
<circle cx="29.1094" cy="28.2465" r="0.5" transform="rotate(145.925 29.1094 28.2465)" fill="#636363"/>
<circle cx="27.5267" cy="29.3169" r="0.5" transform="rotate(145.925 27.5267 29.3169)" fill="#636363"/>
<circle cx="25.9436" cy="30.3877" r="0.5" transform="rotate(145.925 25.9436 30.3877)" fill="#636363"/>
<circle cx="24.3609" cy="31.4585" r="0.5" transform="rotate(145.925 24.3609 31.4585)" fill="#636363"/>
<circle cx="32.7872" cy="23.4516" r="0.5" transform="rotate(145.925 32.7872 23.4516)" fill="#636363"/>
<circle cx="31.2044" cy="24.5224" r="0.5" transform="rotate(145.925 31.2044 24.5224)" fill="#636363"/>
<circle cx="29.6216" cy="25.5927" r="0.5" transform="rotate(145.925 29.6216 25.5927)" fill="#636363"/>
<circle cx="28.0386" cy="26.664" r="0.5" transform="rotate(145.925 28.0386 26.664)" fill="#636363"/>
<circle cx="26.4559" cy="27.7343" r="0.5" transform="rotate(145.925 26.4559 27.7343)" fill="#636363"/>
<circle cx="24.8731" cy="28.8051" r="0.5" transform="rotate(145.925 24.8731 28.8051)" fill="#636363"/>
<circle cx="31.7166" cy="21.8691" r="0.5" transform="rotate(145.925 31.7166 21.8691)" fill="#636363"/>
<circle cx="30.1336" cy="22.9399" r="0.5" transform="rotate(145.925 30.1336 22.9399)" fill="#636363"/>
<circle cx="28.5508" cy="24.0107" r="0.5" transform="rotate(145.925 28.5508 24.0107)" fill="#636363"/>
<circle cx="26.9681" cy="25.081" r="0.5" transform="rotate(145.925 26.9681 25.081)" fill="#636363"/>
<circle cx="25.3853" cy="26.1513" r="0.5" transform="rotate(145.925 25.3853 26.1513)" fill="#636363"/>
<circle cx="30.6458" cy="20.2861" r="0.5" transform="rotate(145.925 30.6458 20.2861)" fill="#636363"/>
<circle cx="29.063" cy="21.3564" r="0.5" transform="rotate(145.925 29.063 21.3564)" fill="#636363"/>
<circle cx="27.4803" cy="22.4272" r="0.5" transform="rotate(145.925 27.4803 22.4272)" fill="#636363"/>
<circle cx="25.8975" cy="23.4985" r="0.5" transform="rotate(145.925 25.8975 23.4985)" fill="#636363"/>
<circle cx="24.3147" cy="24.5688" r="0.5" transform="rotate(145.925 24.3147 24.5688)" fill="#636363"/>
<circle cx="29.5752" cy="18.7036" r="0.5" transform="rotate(145.925 29.5752 18.7036)" fill="#636363"/>
<circle cx="27.9925" cy="19.7739" r="0.5" transform="rotate(145.925 27.9925 19.7739)" fill="#636363"/>
<circle cx="26.4097" cy="20.8447" r="0.5" transform="rotate(145.925 26.4097 20.8447)" fill="#636363"/>
<circle cx="24.8267" cy="21.915" r="0.5" transform="rotate(145.925 24.8267 21.915)" fill="#636363"/>
<circle cx="23.2439" cy="22.9863" r="0.5" transform="rotate(145.925 23.2439 22.9863)" fill="#636363"/>
<circle cx="18.4957" cy="26.1977" r="0.5" transform="rotate(145.925 18.4957 26.1977)" fill="#636363"/>
<circle cx="16.9129" cy="27.268" r="0.5" transform="rotate(145.925 16.9129 27.268)" fill="#636363"/>
<circle cx="33.253" cy="13.9086" r="0.5" transform="rotate(145.925 33.253 13.9086)" fill="#636363"/>
<circle cx="31.6702" cy="14.979" r="0.5" transform="rotate(145.925 31.6702 14.979)" fill="#636363"/>
<circle cx="30.0874" cy="16.0498" r="0.5" transform="rotate(145.925 30.0874 16.0498)" fill="#636363"/>
<circle cx="28.5047" cy="17.1206" r="0.5" transform="rotate(145.925 28.5047 17.1206)" fill="#636363"/>
<circle cx="26.9217" cy="18.1914" r="0.5" transform="rotate(145.925 26.9217 18.1914)" fill="#636363"/>
<circle cx="25.3389" cy="19.2622" r="0.5" transform="rotate(145.925 25.3389 19.2622)" fill="#636363"/>
<circle cx="23.7564" cy="20.3325" r="0.5" transform="rotate(145.925 23.7564 20.3325)" fill="#636363"/>
<circle cx="22.1734" cy="21.4028" r="0.5" transform="rotate(145.925 22.1734 21.4028)" fill="#636363"/>
<circle cx="20.5906" cy="22.4736" r="0.5" transform="rotate(145.925 20.5906 22.4736)" fill="#636363"/>
<circle cx="19.0079" cy="23.5444" r="0.5" transform="rotate(145.925 19.0079 23.5444)" fill="#636363"/>
<circle cx="17.4249" cy="24.6147" r="0.5" transform="rotate(145.925 17.4249 24.6147)" fill="#636363"/>
<circle cx="15.8421" cy="25.686" r="0.5" transform="rotate(145.925 15.8421 25.686)" fill="#636363"/>
<circle cx="32.1824" cy="12.3256" r="0.5" transform="rotate(145.925 32.1824 12.3256)" fill="#636363"/>
<circle cx="30.5997" cy="13.3964" r="0.5" transform="rotate(145.925 30.5997 13.3964)" fill="#636363"/>
<circle cx="29.0166" cy="14.4672" r="0.5" transform="rotate(145.925 29.0166 14.4672)" fill="#636363"/>
<circle cx="27.4339" cy="15.538" r="0.5" transform="rotate(145.925 27.4339 15.538)" fill="#636363"/>
<circle cx="25.8514" cy="16.6084" r="0.5" transform="rotate(145.925 25.8514 16.6084)" fill="#636363"/>
<circle cx="24.2684" cy="17.6792" r="0.5" transform="rotate(145.925 24.2684 17.6792)" fill="#636363"/>
<circle cx="22.6853" cy="18.7495" r="0.5" transform="rotate(145.925 22.6853 18.7495)" fill="#636363"/>
<circle cx="21.1028" cy="19.8208" r="0.5" transform="rotate(145.925 21.1028 19.8208)" fill="#636363"/>
<circle cx="19.5201" cy="20.8911" r="0.5" transform="rotate(145.925 19.5201 20.8911)" fill="#636363"/>
<circle cx="17.9371" cy="21.9619" r="0.5" transform="rotate(145.925 17.9371 21.9619)" fill="#636363"/>
<circle cx="16.3543" cy="23.0322" r="0.5" transform="rotate(145.925 16.3543 23.0322)" fill="#636363"/>
<circle cx="14.7718" cy="24.103" r="0.5" transform="rotate(145.925 14.7718 24.103)" fill="#636363"/>
<circle cx="29.5289" cy="11.8134" r="0.5" transform="rotate(145.925 29.5289 11.8134)" fill="#636363"/>
<circle cx="27.9463" cy="12.8842" r="0.5" transform="rotate(145.925 27.9463 12.8842)" fill="#636363"/>
<circle cx="26.3633" cy="13.9545" r="0.5" transform="rotate(145.925 26.3633 13.9545)" fill="#636363"/>
<circle cx="24.7803" cy="15.0258" r="0.5" transform="rotate(145.925 24.7803 15.0258)" fill="#636363"/>
<circle cx="23.1978" cy="16.0961" r="0.5" transform="rotate(145.925 23.1978 16.0961)" fill="#636363"/>
<circle cx="21.615" cy="17.167" r="0.5" transform="rotate(145.925 21.615 17.167)" fill="#636363"/>
<circle cx="20.032" cy="18.2378" r="0.5" transform="rotate(145.925 20.032 18.2378)" fill="#636363"/>
<circle cx="13.7007" cy="22.52" r="0.5" transform="rotate(145.925 13.7007 22.52)" fill="#636363"/>
<circle cx="25.2928" cy="12.372" r="0.5" transform="rotate(145.925 25.2928 12.372)" fill="#636363"/>
<circle cx="23.71" cy="13.4428" r="0.5" transform="rotate(145.925 23.71 13.4428)" fill="#636363"/>
<circle cx="22.127" cy="14.5136" r="0.5" transform="rotate(145.925 22.127 14.5136)" fill="#636363"/>
<circle cx="20.5442" cy="15.5844" r="0.5" transform="rotate(145.925 20.5442 15.5844)" fill="#636363"/>
<circle cx="18.9617" cy="16.6547" r="0.5" transform="rotate(145.925 18.9617 16.6547)" fill="#636363"/>
<circle cx="24.2222" cy="10.7895" r="0.5" transform="rotate(145.925 24.2222 10.7895)" fill="#636363"/>
<circle cx="22.6392" cy="11.8598" r="0.5" transform="rotate(145.925 22.6392 11.8598)" fill="#636363"/>
<circle cx="21.0567" cy="12.9306" r="0.5" transform="rotate(145.925 21.0567 12.9306)" fill="#636363"/>
<circle cx="19.4737" cy="14.0014" r="0.5" transform="rotate(145.925 19.4737 14.0014)" fill="#636363"/>
<circle cx="17.8909" cy="15.0717" r="0.5" transform="rotate(145.925 17.8909 15.0717)" fill="#636363"/>
<circle cx="21.5686" cy="10.2768" r="0.5" transform="rotate(145.925 21.5686 10.2768)" fill="#636363"/>
<circle cx="19.9859" cy="11.3476" r="0.5" transform="rotate(145.925 19.9859 11.3476)" fill="#636363"/>
<circle cx="18.4031" cy="12.4179" r="0.5" transform="rotate(145.925 18.4031 12.4179)" fill="#636363"/>
<circle cx="16.8201" cy="13.4892" r="0.5" transform="rotate(145.925 16.8201 13.4892)" fill="#636363"/>
<circle cx="15.2373" cy="14.56" r="0.5" transform="rotate(145.925 15.2373 14.56)" fill="#636363"/>
<circle cx="20.4981" cy="8.69429" r="0.5" transform="rotate(145.925 20.4981 8.69429)" fill="#636363"/>
<circle cx="18.9151" cy="9.76509" r="0.5" transform="rotate(145.925 18.9151 9.76509)" fill="#636363"/>
<circle cx="17.3323" cy="10.8359" r="0.5" transform="rotate(145.925 17.3323 10.8359)" fill="#636363"/>
<circle cx="15.7496" cy="11.9062" r="0.5" transform="rotate(145.925 15.7496 11.9062)" fill="#636363"/>
<circle cx="14.1668" cy="12.9765" r="0.5" transform="rotate(145.925 14.1668 12.9765)" fill="#636363"/>
<circle cx="12.584" cy="14.0473" r="0.5" transform="rotate(145.925 12.584 14.0473)" fill="#636363"/>
<circle cx="16.2618" cy="9.2524" r="0.5" transform="rotate(145.925 16.2618 9.2524)" fill="#636363"/>
<circle cx="14.679" cy="10.3237" r="0.5" transform="rotate(145.925 14.679 10.3237)" fill="#636363"/>
<circle cx="13.0962" cy="11.394" r="0.5" transform="rotate(145.925 13.0962 11.394)" fill="#636363"/>
<circle cx="11.5135" cy="12.4648" r="0.5" transform="rotate(145.925 11.5135 12.4648)" fill="#636363"/>
<circle cx="9.93046" cy="13.5351" r="0.5" transform="rotate(145.925 9.93046 13.5351)" fill="#636363"/>
<circle cx="12.0254" cy="9.81148" r="0.5" transform="rotate(145.925 12.0254 9.81148)" fill="#636363"/>
<circle cx="10.4427" cy="10.8823" r="0.5" transform="rotate(145.925 10.4427 10.8823)" fill="#636363"/>
<circle cx="8.85991" cy="11.9526" r="0.5" transform="rotate(145.925 8.85991 11.9526)" fill="#636363"/>
<circle cx="7.27714" cy="13.0229" r="0.5" transform="rotate(145.925 7.27714 13.0229)" fill="#636363"/>
<circle cx="5.69438" cy="14.0932" r="0.5" transform="rotate(145.925 5.69438 14.0932)" fill="#636363"/>
</svg>
